<svg width="40" height="42" viewBox="0 0 40 42" fill="none" xmlns="http://www.w3.org/2000/svg">
<ellipse cx="20" cy="21" rx="20" ry="20.4545" fill="#7C91C8"/>
<path d="M10.3334 13.5C10.1566 13.5 9.98703 13.5718 9.86201 13.6997C9.73699 13.8276 9.66675 14.001 9.66675 14.1818V29.1818C9.66675 29.3626 9.73699 29.5361 9.86201 29.6639C9.98703 29.7918 10.1566 29.8636 10.3334 29.8636C10.5102 29.8636 10.6798 29.7918 10.8048 29.6639C10.9298 29.5361 11.0001 29.3626 11.0001 29.1818V14.1818C11.0001 14.001 10.9298 13.8276 10.8048 13.6997C10.6798 13.5718 10.5102 13.5 10.3334 13.5Z" fill="white"/>
<path d="M12.9999 13.5C12.8231 13.5 12.6535 13.5718 12.5285 13.6997C12.4035 13.8276 12.3333 14.001 12.3333 14.1818V26.4545C12.3333 26.6354 12.4035 26.8088 12.5285 26.9367C12.6535 27.0645 12.8231 27.1364 12.9999 27.1364C13.1767 27.1364 13.3463 27.0645 13.4713 26.9367C13.5963 26.8088 13.6666 26.6354 13.6666 26.4545V14.1818C13.6666 14.001 13.5963 13.8276 13.4713 13.6997C13.3463 13.5718 13.1767 13.5 12.9999 13.5Z" fill="white"/>
<path d="M15.6667 13.5C15.4899 13.5 15.3203 13.5718 15.1953 13.6997C15.0702 13.8276 15 14.001 15 14.1818V26.4545C15 26.6354 15.0702 26.8088 15.1953 26.9367C15.3203 27.0645 15.4899 27.1364 15.6667 27.1364C15.8435 27.1364 16.013 27.0645 16.1381 26.9367C16.2631 26.8088 16.3333 26.6354 16.3333 26.4545V14.1818C16.3333 14.001 16.2631 13.8276 16.1381 13.6997C16.013 13.5718 15.8435 13.5 15.6667 13.5Z" fill="white"/>
<path d="M18.3334 13.5C18.1566 13.5 17.987 13.5718 17.862 13.6997C17.737 13.8276 17.6667 14.001 17.6667 14.1818V26.4545C17.6667 26.6354 17.737 26.8088 17.862 26.9367C17.987 27.0645 18.1566 27.1364 18.3334 27.1364C18.5102 27.1364 18.6798 27.0645 18.8048 26.9367C18.9298 26.8088 19.0001 26.6354 19.0001 26.4545V14.1818C19.0001 14.001 18.9298 13.8276 18.8048 13.6997C18.6798 13.5718 18.5102 13.5 18.3334 13.5Z" fill="white"/>
<path d="M20.9999 13.5C20.8231 13.5 20.6535 13.5718 20.5285 13.6997C20.4035 13.8276 20.3333 14.001 20.3333 14.1818V26.4545C20.3333 26.6354 20.4035 26.8088 20.5285 26.9367C20.6535 27.0645 20.8231 27.1364 20.9999 27.1364C21.1767 27.1364 21.3463 27.0645 21.4713 26.9367C21.5963 26.8088 21.6666 26.6354 21.6666 26.4545V14.1818C21.6666 14.001 21.5963 13.8276 21.4713 13.6997C21.3463 13.5718 21.1767 13.5 20.9999 13.5Z" fill="white"/>
<path d="M23.6667 13.5C23.4899 13.5 23.3203 13.5718 23.1953 13.6997C23.0702 13.8276 23 14.001 23 14.1818V26.4545C23 26.6354 23.0702 26.8088 23.1953 26.9367C23.3203 27.0645 23.4899 27.1364 23.6667 27.1364C23.8435 27.1364 24.013 27.0645 24.1381 26.9367C24.2631 26.8088 24.3333 26.6354 24.3333 26.4545V14.1818C24.3333 14.001 24.2631 13.8276 24.1381 13.6997C24.013 13.5718 23.8435 13.5 23.6667 13.5Z" fill="white"/>
<path d="M26.3334 13.5C26.1566 13.5 25.987 13.5718 25.862 13.6997C25.737 13.8276 25.6667 14.001 25.6667 14.1818V26.4545C25.6667 26.6354 25.737 26.8088 25.862 26.9367C25.987 27.0645 26.1566 27.1364 26.3334 27.1364C26.5102 27.1364 26.6798 27.0645 26.8048 26.9367C26.9298 26.8088 27.0001 26.6354 27.0001 26.4545V14.1818C27.0001 14.001 26.9298 13.8276 26.8048 13.6997C26.6798 13.5718 26.5102 13.5 26.3334 13.5Z" fill="white"/>
<path d="M28.9999 13.5C28.8231 13.5 28.6535 13.5718 28.5285 13.6997C28.4035 13.8276 28.3333 14.001 28.3333 14.1818V29.1818C28.3333 29.3626 28.4035 29.5361 28.5285 29.6639C28.6535 29.7918 28.8231 29.8636 28.9999 29.8636C29.1767 29.8636 29.3463 29.7918 29.4713 29.6639C29.5963 29.5361 29.6666 29.3626 29.6666 29.1818V14.1818C29.6666 14.001 29.5963 13.8276 29.4713 13.6997C29.3463 13.5718 29.1767 13.5 28.9999 13.5Z" fill="white"/>
</svg>
