<svg width="40" height="42" viewBox="0 0 40 42" fill="none" xmlns="http://www.w3.org/2000/svg">
<ellipse cx="20" cy="21" rx="20" ry="20.4545" fill="#7C91C8"/>
<g clip-path="url(#clip0_2692_125)">
<path d="M8 14.0966C8 13.4863 8.23705 12.901 8.65901 12.4695C9.08097 12.0379 9.65326 11.7955 10.25 11.7955H23.75C24.3467 11.7955 24.919 12.0379 25.341 12.4695C25.7629 12.901 26 13.4863 26 14.0966V16.3977H27.53C27.8671 16.3981 28.1998 16.4758 28.5036 16.6253C28.8074 16.7748 29.0744 16.9922 29.285 17.2614L31.5065 20.0995C31.8261 20.5079 32.0002 21.0154 32 21.5385V24.8352C32 25.4455 31.7629 26.0308 31.341 26.4624C30.919 26.8939 30.3467 27.1364 29.75 27.1364H29C29 27.9501 28.6839 28.7305 28.1213 29.3059C27.5587 29.8813 26.7956 30.2046 26 30.2046C25.2044 30.2046 24.4413 29.8813 23.8787 29.3059C23.3161 28.7305 23 27.9501 23 27.1364H15.5C15.5009 27.5453 15.4218 27.9504 15.2674 28.3276C15.113 28.7049 14.8864 29.0467 14.601 29.3332C14.3155 29.6196 13.977 29.8447 13.6052 29.9954C13.2335 30.146 12.836 30.2192 12.4362 30.2105C12.0365 30.2018 11.6424 30.1115 11.2772 29.9448C10.9121 29.7781 10.5832 29.5384 10.3099 29.2398C10.0366 28.9413 9.82447 28.5899 9.6859 28.2062C9.54733 27.8226 9.48514 27.4145 9.503 27.006C9.06357 26.8478 8.68298 26.554 8.41377 26.1652C8.14455 25.7764 7.99997 25.3117 8 24.8352V14.0966ZM9.941 25.5348C10.2122 25.0807 10.5943 24.7066 11.0496 24.4492C11.505 24.1918 12.018 24.0601 12.5383 24.0669C13.0585 24.0737 13.5681 24.2188 14.0169 24.488C14.4657 24.7572 14.8383 25.1412 15.098 25.6023H23.402C23.6659 25.1363 24.0444 24.7492 24.5 24.4793V14.0966C24.5 13.8932 24.421 13.6981 24.2803 13.5542C24.1397 13.4104 23.9489 13.3296 23.75 13.3296H10.25C10.0511 13.3296 9.86032 13.4104 9.71967 13.5542C9.57902 13.6981 9.5 13.8932 9.5 14.0966V24.8352C9.49988 24.9829 9.54143 25.1274 9.61966 25.2515C9.69788 25.3756 9.80946 25.474 9.941 25.5348ZM26 24.0682C26.5266 24.0682 27.0439 24.21 27.5 24.4793C27.956 24.7486 28.3347 25.1359 28.598 25.6023H29.75C29.9489 25.6023 30.1397 25.5215 30.2803 25.3776C30.421 25.2338 30.5 25.0387 30.5 24.8352V21.5369C30.4997 21.3629 30.4415 21.1941 30.335 21.0583L28.115 18.2202C28.0449 18.1304 27.9559 18.0578 27.8546 18.0079C27.7533 17.958 27.6424 17.932 27.53 17.9318H26V24.0682ZM12.5 25.6023C12.1022 25.6023 11.7206 25.7639 11.4393 26.0516C11.158 26.3393 11 26.7295 11 27.1364C11 27.5432 11.158 27.9334 11.4393 28.2211C11.7206 28.5088 12.1022 28.6705 12.5 28.6705C12.8978 28.6705 13.2794 28.5088 13.5607 28.2211C13.842 27.9334 14 27.5432 14 27.1364C14 26.7295 13.842 26.3393 13.5607 26.0516C13.2794 25.7639 12.8978 25.6023 12.5 25.6023ZM26 25.6023C25.6022 25.6023 25.2206 25.7639 24.9393 26.0516C24.658 26.3393 24.5 26.7295 24.5 27.1364C24.5 27.5432 24.658 27.9334 24.9393 28.2211C25.2206 28.5088 25.6022 28.6705 26 28.6705C26.3978 28.6705 26.7794 28.5088 27.0607 28.2211C27.342 27.9334 27.5 27.5432 27.5 27.1364C27.5 26.7295 27.342 26.3393 27.0607 26.0516C26.7794 25.7639 26.3978 25.6023 26 25.6023Z" fill="white"/>
</g>
<defs>
<clipPath id="clip0_2692_125">
<rect width="24" height="24.5455" fill="white" transform="translate(8 8.72729)"/>
</clipPath>
</defs>
</svg>
