<svg width="40" height="42" viewBox="0 0 40 42" fill="none" xmlns="http://www.w3.org/2000/svg">
<ellipse cx="20" cy="21" rx="20" ry="20.4545" fill="#7C91C8"/>
<g clip-path="url(#clip0_2692_115)">
<path d="M27.91 25.1012H23.38C23.1148 25.1012 22.8604 25.2089 22.6729 25.4007C22.4854 25.5925 22.38 25.8526 22.38 26.1239C22.38 26.3951 22.4854 26.6553 22.6729 26.8471C22.8604 27.0389 23.1148 27.1466 23.38 27.1466H25.78C24.6769 28.3256 23.2544 29.1402 21.6952 29.486C20.1359 29.8318 18.5112 29.6928 17.0298 29.087C15.5483 28.4812 14.2779 27.4362 13.3816 26.0862C12.4853 24.7363 12.0042 23.1431 12 21.5114C12 21.2401 11.8946 20.98 11.7071 20.7882C11.5196 20.5964 11.2652 20.4887 11 20.4887C10.7348 20.4887 10.4804 20.5964 10.2929 20.7882C10.1054 20.98 10 21.2401 10 21.5114C10.0053 23.5086 10.5822 25.4605 11.6596 27.1262C12.737 28.7919 14.2677 30.0986 16.0627 30.8849C17.8578 31.6713 19.8387 31.9029 21.761 31.5511C23.6833 31.1994 25.4628 30.2798 26.88 28.9057V30.7159C26.88 30.9872 26.9854 31.2473 27.1729 31.4391C27.3604 31.6309 27.6148 31.7387 27.88 31.7387C28.1452 31.7387 28.3996 31.6309 28.5871 31.4391C28.7746 31.2473 28.88 30.9872 28.88 30.7159V26.1137C28.8775 25.8494 28.7752 25.5964 28.5943 25.4077C28.4135 25.2189 28.1683 25.1091 27.91 25.1012ZM20 11.2841C17.4364 11.2916 14.9735 12.3057 13.12 14.1171V12.3068C13.12 12.0356 13.0146 11.7755 12.8271 11.5837C12.6396 11.3919 12.3852 11.2841 12.12 11.2841C11.8548 11.2841 11.6004 11.3919 11.4129 11.5837C11.2254 11.7755 11.12 12.0356 11.12 12.3068V16.9091C11.12 17.1804 11.2254 17.4405 11.4129 17.6323C11.6004 17.8241 11.8548 17.9318 12.12 17.9318H16.62C16.8852 17.9318 17.1396 17.8241 17.3271 17.6323C17.5146 17.4405 17.62 17.1804 17.62 16.9091C17.62 16.6379 17.5146 16.3777 17.3271 16.1859C17.1396 15.9941 16.8852 15.8864 16.62 15.8864H14.22C15.3225 14.7081 16.7441 13.8936 18.3024 13.5475C19.8607 13.2014 21.4846 13.3395 22.9656 13.9441C24.4466 14.5486 25.7172 15.5921 26.6142 16.9404C27.5113 18.2888 27.9938 19.8805 28 21.5114C28 21.7826 28.1054 22.0428 28.2929 22.2346C28.4804 22.4264 28.7348 22.5341 29 22.5341C29.2652 22.5341 29.5196 22.4264 29.7071 22.2346C29.8946 22.0428 30 21.7826 30 21.5114C30 20.1683 29.7413 18.8384 29.2388 17.5976C28.7362 16.3568 27.9997 15.2293 27.0711 14.2796C26.1425 13.3299 25.0401 12.5766 23.8268 12.0626C22.6136 11.5487 21.3132 11.2841 20 11.2841Z" fill="white"/>
</g>
<defs>
<clipPath id="clip0_2692_115">
<rect width="24" height="24.5455" fill="white" transform="translate(8 8.72729)"/>
</clipPath>
</defs>
</svg>
