<svg width="40" height="40" viewBox="0 0 40 40" fill="none" xmlns="http://www.w3.org/2000/svg">
<circle cx="20" cy="20" r="20" fill="#F4F5F5"/>
<path d="M9 10.5H10.6542C11.1326 10.5 11.3718 10.5 11.5663 10.5867C11.7377 10.6632 11.8841 10.7864 11.9889 10.9422C12.1076 11.1189 12.1486 11.3545 12.2306 11.8259L12.6087 14M12.6087 14L13.4917 19.0774C13.6709 20.1077 13.7605 20.6228 14.0258 20.9939C14.2595 21.3207 14.5861 21.5695 14.9631 21.708C15.3913 21.8654 15.9118 21.815 16.9526 21.7143L26.614 20.7793C27.6298 20.681 28.1378 20.6318 28.5221 20.4033C28.8653 20.1993 29.1395 19.8972 29.3095 19.536C29.5 19.1314 29.5 18.6211 29.5 17.6005V17.6005C29.5 16.5158 29.5 15.9735 29.2922 15.5539C29.1068 15.1797 28.809 14.8729 28.4404 14.6765C28.0272 14.4564 27.4851 14.4404 26.4009 14.4083L12.6087 14Z" stroke="#7C91C8" stroke-width="1.8" stroke-linecap="round" stroke-linejoin="round"/>
<circle cx="16.5" cy="27" r="2" stroke="#7C91C8" stroke-width="1.8"/>
<circle cx="26" cy="27" r="2" stroke="#7C91C8" stroke-width="1.8"/>
</svg>
