<svg width="40" height="40" viewBox="0 0 40 40" fill="none" xmlns="http://www.w3.org/2000/svg">
<circle cx="20" cy="20" r="20" fill="#F4F5F5"/>
<g clip-path="url(#clip0_2856_503)">
<path d="M27.91 24.01H23.38C23.1148 24.01 22.8604 24.1154 22.6729 24.3029C22.4854 24.4904 22.38 24.7448 22.38 25.01C22.38 25.2752 22.4854 25.5296 22.6729 25.7171C22.8604 25.9046 23.1148 26.01 23.38 26.01H25.78C24.6769 27.1627 23.2544 27.9593 21.6952 28.2974C20.1359 28.6355 18.5112 28.4996 17.0298 27.9072C15.5483 27.3149 14.2779 26.2931 13.3816 24.9732C12.4853 23.6532 12.0042 22.0955 12 20.5C12 20.2348 11.8946 19.9804 11.7071 19.7929C11.5196 19.6054 11.2652 19.5 11 19.5C10.7348 19.5 10.4804 19.6054 10.2929 19.7929C10.1054 19.9804 10 20.2348 10 20.5C10.0053 22.4528 10.5822 24.3613 11.6596 25.99C12.737 27.6187 14.2677 28.8964 16.0627 29.6652C17.8578 30.4341 19.8387 30.6605 21.761 30.3166C23.6833 29.9727 25.4628 29.0735 26.88 27.73V29.5C26.88 29.7652 26.9854 30.0196 27.1729 30.2071C27.3604 30.3946 27.6148 30.5 27.88 30.5C28.1452 30.5 28.3996 30.3946 28.5871 30.2071C28.7746 30.0196 28.88 29.7652 28.88 29.5V25C28.8775 24.7416 28.7752 24.4943 28.5943 24.3097C28.4135 24.1251 28.1683 24.0177 27.91 24.01ZM20 10.5C17.4364 10.5073 14.9735 11.4989 13.12 13.27V11.5C13.12 11.2348 13.0146 10.9804 12.8271 10.7929C12.6396 10.6054 12.3852 10.5 12.12 10.5C11.8548 10.5 11.6004 10.6054 11.4129 10.7929C11.2254 10.9804 11.12 11.2348 11.12 11.5V16C11.12 16.2652 11.2254 16.5196 11.4129 16.7071C11.6004 16.8946 11.8548 17 12.12 17H16.62C16.8852 17 17.1396 16.8946 17.3271 16.7071C17.5146 16.5196 17.62 16.2652 17.62 16C17.62 15.7348 17.5146 15.4804 17.3271 15.2929C17.1396 15.1054 16.8852 15 16.62 15H14.22C15.3225 13.8479 16.7441 13.0515 18.3024 12.7131C19.8607 12.3747 21.4846 12.5097 22.9656 13.1009C24.4466 13.692 25.7172 14.7122 26.6142 16.0306C27.5113 17.349 27.9938 18.9054 28 20.5C28 20.7652 28.1054 21.0196 28.2929 21.2071C28.4804 21.3946 28.7348 21.5 29 21.5C29.2652 21.5 29.5196 21.3946 29.7071 21.2071C29.8946 21.0196 30 20.7652 30 20.5C30 19.1868 29.7413 17.8864 29.2388 16.6732C28.7362 15.4599 27.9997 14.3575 27.0711 13.4289C26.1425 12.5003 25.0401 11.7638 23.8268 11.2612C22.6136 10.7587 21.3132 10.5 20 10.5Z" fill="#7C91C8"/>
</g>
<defs>
<clipPath id="clip0_2856_503">
<rect width="24" height="24" fill="white" transform="translate(8 8)"/>
</clipPath>
</defs>
</svg>
