<svg width="23" height="24" viewBox="0 0 23 24" fill="none" xmlns="http://www.w3.org/2000/svg">
<g clip-path="url(#clip0_2783_419)">
<path d="M20.2678 6.88204C21.1635 6.2461 21.9169 5.45232 22.5308 4.53832V4.5374C21.7113 4.89621 20.8395 5.1348 19.9292 5.25043C20.8652 4.69157 21.5801 3.81337 21.916 2.7553C21.0433 3.27562 20.0797 3.64268 19.0528 3.84824C18.2242 2.96544 17.0432 2.41943 15.7548 2.41943C13.255 2.41943 11.2426 4.44839 11.2426 6.93526C11.2426 7.29315 11.2729 7.63728 11.3472 7.96488C7.59396 7.78135 4.27202 5.98273 2.04025 3.24166C1.65116 3.91798 1.42175 4.69157 1.42175 5.52389C1.42175 7.0876 2.22654 8.47327 3.42776 9.27623C2.70189 9.26246 1.9907 9.0514 1.38779 8.72012V8.76968C1.38779 10.9638 2.95241 12.7863 5.00523 13.2066C4.63725 13.3075 4.23714 13.3552 3.82144 13.3552C3.53238 13.3552 3.24056 13.3387 2.9671 13.2782C3.55165 15.0658 5.21262 16.3808 7.1856 16.4239C5.64943 17.6251 3.69847 18.3492 1.58693 18.3492C1.21711 18.3492 0.861972 18.3327 0.506836 18.2877C2.50735 19.577 4.87676 20.3139 7.43337 20.3139C15.4015 20.3139 20.5945 13.6663 20.2678 6.88204Z" fill="#3A3A3A"/>
</g>
<defs>
<clipPath id="clip0_2783_419">
<rect width="22.024" height="22.8194" fill="white" transform="translate(0.506836 0.354736)"/>
</clipPath>
</defs>
</svg>
