<svg width="40" height="42" viewBox="0 0 40 42" fill="none" xmlns="http://www.w3.org/2000/svg">
<ellipse cx="20" cy="21.1557" rx="20" ry="20.7224" fill="#7C91C8"/>
<path d="M23.805 29.789H23.8284C24.2683 29.789 24.6842 29.6094 24.9992 29.2831L27.2592 26.9414C27.3366 26.8613 27.3981 26.7662 27.44 26.6614C27.4819 26.5567 27.5035 26.4444 27.5035 26.331C27.5035 26.2176 27.4819 26.1053 27.44 26.0005C27.3981 25.8958 27.3366 25.8006 27.2592 25.7205L23.9258 22.2668C23.8485 22.1865 23.7567 22.1229 23.6556 22.0794C23.5545 22.036 23.4461 22.0136 23.3367 22.0136C23.2272 22.0136 23.1189 22.036 23.0178 22.0794C22.9167 22.1229 22.8248 22.1865 22.7475 22.2668L21.4192 23.6431C20.8034 23.4532 19.6542 23.0214 18.9259 22.2668C18.1975 21.5122 17.7808 20.3215 17.5975 19.6834L18.9259 18.3071C19.0033 18.227 19.0648 18.1318 19.1067 18.0271C19.1486 17.9223 19.1702 17.8101 19.1702 17.6967C19.1702 17.5833 19.1486 17.471 19.1067 17.3662C19.0648 17.2615 19.0033 17.1663 18.9259 17.0862L15.5925 13.6325C15.4332 13.4767 15.2224 13.3899 15.0034 13.3899C14.7843 13.3899 14.5735 13.4767 14.4142 13.6325L12.155 15.9741C11.8384 16.3022 11.66 16.7529 11.6667 17.2131C11.6859 18.4427 12 22.7132 15.2484 26.0789C18.4967 29.4445 22.6184 29.7692 23.805 29.789ZM15.0042 15.4638L17.1592 17.6967L16.0817 18.8131C15.9836 18.9144 15.9116 19.0395 15.8722 19.1771C15.8327 19.3146 15.8271 19.4602 15.8559 19.6005C15.8759 19.6998 16.365 22.0544 17.7484 23.4877C19.1317 24.921 21.4042 25.4278 21.5 25.4485C21.6355 25.4785 21.776 25.4728 21.9088 25.4319C22.0416 25.391 22.1623 25.3163 22.26 25.2146L23.3375 24.0981L25.4925 26.331L23.8208 28.0622C22.7808 28.044 19.2225 27.7548 16.4267 24.8571C13.6217 21.9508 13.35 18.251 13.3334 17.195L15.0042 15.4638ZM26.6659 20.2913H28.3325C28.3325 15.8619 25.105 12.5212 20.8242 12.5212V14.2481C24.2092 14.2481 26.6659 16.7892 26.6659 20.2913Z" fill="white" stroke="#7C91C8" stroke-width="0.5"/>
<path d="M20.8325 17.702C22.585 17.702 23.3325 18.4765 23.3325 20.2923H24.9992C24.9992 17.5077 23.52 15.9751 20.8325 15.9751V17.702Z" fill="white" stroke="#7C91C8" stroke-width="0.5"/>
</svg>
