<svg width="67" height="41" viewBox="0 0 67 41" fill="none" xmlns="http://www.w3.org/2000/svg">
<path d="M61.3489 0.517708H5.65086C4.19684 0.496748 2.79332 1.0096 1.74886 1.9435C0.704404 2.87741 0.104505 4.15593 0.0810547 5.49797L0.0810547 35.3795C0.104505 36.7216 0.704404 38.0001 1.74886 38.934C2.79332 39.8679 4.19684 40.3808 5.65086 40.3598H61.3489C62.8029 40.3808 64.2064 39.8679 65.2509 38.934C66.2954 38.0001 66.8953 36.7216 66.9187 35.3795V5.49797C66.8953 4.15593 66.2954 2.87741 65.2509 1.9435C64.2064 1.0096 62.8029 0.496748 61.3489 0.517708Z" fill="#EAEAEA"/>
<path d="M26.0349 28.0418L28.5359 12.8354H32.585L30.0841 28.0418H26.0349Z" fill="#3A3A3A"/>
<path d="M44.4985 13.229C43.6961 12.9209 42.4389 12.5908 40.8689 12.5908C36.8671 12.5908 34.0483 14.6538 34.024 17.6093C34.0018 19.7938 36.0362 21.0123 37.5731 21.7403C39.1492 22.4841 39.6793 22.9615 39.6715 23.6262C39.6617 24.6455 38.4123 25.1115 37.248 25.1115C35.6275 25.1109 34.7662 24.8808 33.4362 24.3133L32.9144 24.071L32.3457 27.4752C33.2917 27.8998 35.0412 28.2681 36.8573 28.2867C41.1134 28.2857 43.8776 26.2483 43.9086 23.0913C43.9241 21.3616 42.8449 20.0453 40.5086 18.9597C39.0929 18.2572 38.2259 17.7879 38.2353 17.0749C38.2353 16.443 38.9696 15.7672 40.5545 15.7672C41.8788 15.7459 42.8382 16.0414 43.586 16.3496L43.9483 16.525L44.4985 13.229Z" fill="#3A3A3A"/>
<path d="M51.4021 12.8354C50.432 12.8354 49.731 13.1405 49.3047 14.1305L43.3037 28.0423H47.5909L48.4243 25.7121H53.5465L54.0223 28.0423H57.8336L54.4993 12.8359H51.4023L51.4021 12.8354ZM49.5618 22.6694C49.8963 21.7937 51.1746 18.4193 51.1746 18.4193C51.1514 18.4592 51.5074 17.5393 51.7118 16.9686L51.9858 18.279C51.9858 18.279 52.7604 21.9089 52.9231 22.6698H49.5618V22.6694Z" fill="#3A3A3A"/>
<path d="M18.6505 23.2592L18.2938 21.1745C17.5548 18.7445 15.2613 16.1152 12.6912 14.7978L16.2687 28.0418H20.5568L26.9877 12.8354H22.7005L18.6505 23.2592Z" fill="#3A3A3A"/>
<path d="M8.28931 12.8354V13.081C13.3702 14.3393 16.8977 17.5203 18.2942 21.1747L16.826 14.1332C16.5809 13.1709 15.8381 12.869 14.9593 12.8356L8.28931 12.8354Z" fill="#3A3A3A"/>
</svg>
