<svg width="23" height="24" viewBox="0 0 23 24" fill="none" xmlns="http://www.w3.org/2000/svg">
<g clip-path="url(#clip0_2783_421)">
<path d="M22.0675 5.79567L22.095 5.97553C21.8289 5.03126 21.1103 4.30263 20.1973 4.03743L20.178 4.03284C18.461 3.56666 11.5519 3.56666 11.5519 3.56666C11.5519 3.56666 4.66028 3.55749 2.92589 4.03284C1.99538 4.30263 1.27593 5.03126 1.0144 5.95626L1.00981 5.97553C0.368361 9.32593 0.363772 13.3517 1.03826 16.9389L1.00981 16.7572C1.27593 17.7015 1.99446 18.4301 2.90754 18.6953L2.92681 18.6999C4.64193 19.167 11.5529 19.167 11.5529 19.167C11.5529 19.167 18.4436 19.167 20.1789 18.6999C21.1103 18.4301 21.8298 17.7015 22.0913 16.7765L22.0959 16.7572C22.3877 15.199 22.5548 13.4059 22.5548 11.5742C22.5548 11.5072 22.5548 11.4393 22.5538 11.3714C22.5548 11.309 22.5548 11.2347 22.5548 11.1603C22.5548 9.32776 22.3877 7.53465 22.0675 5.79567ZM9.34771 14.7172V8.02468L15.0978 11.376L9.34771 14.7172Z" fill="#3A3A3A"/>
</g>
<defs>
<clipPath id="clip0_2783_421">
<rect width="22.024" height="22.8194" fill="white" transform="translate(0.530762 0.354736)"/>
</clipPath>
</defs>
</svg>
