<svg width="40" height="43" viewBox="0 0 40 43" fill="none" xmlns="http://www.w3.org/2000/svg">
<ellipse cx="20" cy="21.6233" rx="20" ry="20.7224" fill="#7C91C8"/>
<path fill-rule="evenodd" clip-rule="evenodd" d="M27.0859 14.2738C26.1634 13.3163 25.0658 12.557 23.8567 12.04C22.6476 11.523 21.3511 11.2586 20.0421 11.262C14.5535 11.262 10.0854 15.8684 10.0832 21.5305C10.0832 23.3401 10.5413 25.1062 11.4121 26.6642L10 31.9843L15.279 30.5556C16.7392 31.3753 18.3751 31.8051 20.0377 31.8059H20.0421C25.5296 31.8059 29.9977 27.1995 30 21.5374C30.0037 20.1882 29.7481 18.8516 29.248 17.6048C28.7478 16.3581 28.013 15.2259 27.0859 14.2738ZM20.0421 30.0729H20.0388C18.5563 30.0731 17.1011 29.6618 15.8258 28.8822L15.5241 28.6968L12.3916 29.5445L13.2268 26.3954L13.0305 26.0728C12.2016 24.7121 11.7629 23.1374 11.7648 21.5305C11.7671 16.8246 15.4797 12.9961 20.0455 12.9961C21.1328 12.9936 22.2098 13.2135 23.2142 13.6431C24.2186 14.0727 25.1304 14.7035 25.8968 15.4989C26.6673 16.2905 27.278 17.2317 27.6937 18.2682C28.1093 19.3047 28.3216 20.4158 28.3183 21.5374C28.3161 26.2432 24.6034 30.0729 20.0421 30.0729ZM24.5823 23.6798C24.3327 23.5506 23.1103 22.9306 22.8818 22.8448C22.6544 22.759 22.4892 22.7167 22.3228 22.9729C22.1564 23.2292 21.6794 23.8068 21.5341 23.9784C21.3888 24.15 21.2435 24.1706 20.995 24.0424C20.7465 23.9143 19.9445 23.6432 18.9939 22.7693C18.254 22.0887 17.7548 21.2491 17.6095 20.9917C17.4642 20.7344 17.594 20.596 17.7193 20.4679C17.8314 20.3535 17.9678 20.1682 18.0921 20.0183C18.2163 19.8685 18.2573 19.7621 18.3405 19.5905C18.4237 19.4189 18.3827 19.2691 18.3194 19.141C18.2573 19.0117 17.7593 17.7489 17.5518 17.2353C17.3511 16.7377 17.1459 16.804 16.9928 16.7972C16.8342 16.7905 16.6756 16.7874 16.5169 16.788C16.3907 16.7913 16.2666 16.8215 16.1522 16.8766C16.0379 16.9317 15.9358 17.0106 15.8525 17.1083C15.6239 17.3657 14.9817 17.9857 14.9817 19.2485C14.9817 20.5113 15.8735 21.7318 15.9978 21.9034C16.122 22.075 17.7526 24.6659 20.2485 25.7777C20.843 26.0419 21.3067 26.1998 21.6672 26.3187C22.2629 26.5143 22.8053 26.4858 23.2346 26.4206C23.7127 26.3473 24.7066 25.8006 24.914 25.2012C25.1214 24.6018 25.1214 24.0882 25.0593 23.9807C24.9972 23.8732 24.8297 23.808 24.5823 23.6798Z" fill="white" stroke="#7C91C8" stroke-width="0.2"/>
</svg>
