<svg width="67" height="41" viewBox="0 0 67 41" fill="none" xmlns="http://www.w3.org/2000/svg">
<path d="M61.2677 0.517708H5.56979C4.11578 0.496748 2.71226 1.0096 1.66781 1.9435C0.623348 2.87741 0.02345 4.15593 0 5.49797L0 35.3795C0.02345 36.7216 0.623348 38.0001 1.66781 38.934C2.71226 39.8679 4.11578 40.3808 5.56979 40.3598H61.2677C62.7217 40.3808 64.1253 39.8679 65.1697 38.934C66.2142 38.0001 66.8141 36.7216 66.8375 35.3795V5.49797C66.8141 4.15593 66.2142 2.87741 65.1697 1.9435C64.1253 1.0096 62.7217 0.496748 61.2677 0.517708Z" fill="#EAEAEA"/>
<path d="M14.7969 14.516C15.5506 14.2569 16.349 14.1656 17.1395 14.2478C17.93 14.3301 18.6946 14.5841 19.3826 14.9932C20.0707 15.4023 20.6666 15.9571 21.131 16.6209C21.5954 17.2847 21.9176 18.0424 22.0765 18.844L25.9255 18.0359C25.6547 16.6739 25.1064 15.3866 24.3169 14.2588C23.5274 13.1309 22.5145 12.1884 21.3453 11.4932C20.176 10.798 18.8768 10.366 17.5335 10.2257C16.1902 10.0854 14.8333 10.2401 13.5522 10.6794L14.7969 14.516Z" fill="#3A3A3A"/>
<path d="M10.2553 27.3549L12.857 24.3264C12.2622 23.7839 11.7859 23.1176 11.4598 22.3715C11.1336 21.6254 10.965 20.8165 10.965 19.9984C10.965 19.1802 11.1336 18.3713 11.4598 17.6252C11.7859 16.8792 12.2622 16.2129 12.857 15.6704L10.254 12.6418C9.24218 13.5635 8.43205 14.6959 7.87719 15.9641C7.32233 17.2323 7.0354 18.6074 7.0354 19.9984C7.0354 21.3893 7.32233 22.7644 7.87719 24.0326C8.43205 25.3009 9.24218 26.4332 10.254 27.3549H10.2553Z" fill="#3A3A3A"/>
<path d="M22.0753 21.158C21.9156 21.9591 21.5927 22.7162 21.1279 23.3793C20.6631 24.0424 20.067 24.5965 19.3788 25.0049C18.6907 25.4133 17.9263 25.6667 17.136 25.7485C16.3458 25.8302 15.5476 25.7384 14.7944 25.4791L13.5483 29.3143C14.8287 29.7539 16.185 29.9091 17.5279 29.7696C18.8707 29.6301 20.1696 29.1991 21.3389 28.5051C22.5082 27.811 23.5213 26.8696 24.3115 25.7429C25.1016 24.6163 25.6509 23.3299 25.923 21.9688L22.0753 21.158Z" fill="#3A3A3A"/>
<path d="M38.7374 23.8669C38.1889 24.4246 37.4728 24.774 36.7063 24.858C35.9398 24.9421 35.1683 24.7557 34.518 24.3295L33.2439 26.4191C34.3498 27.1372 35.6585 27.4503 36.9586 27.308C38.2587 27.1656 39.4741 26.576 40.4086 25.6345L38.7374 23.8669Z" fill="#3A3A3A"/>
<path d="M36.4272 15.3542C35.3715 15.3381 34.3314 15.6179 33.4182 16.1636C32.505 16.7093 31.7532 17.5004 31.2431 18.4523C30.733 19.4042 30.4839 20.4809 30.5224 21.5674C30.561 22.6538 30.8857 23.709 31.4618 24.6201L42.0062 19.9796C41.7097 18.6788 40.9997 17.5172 39.989 16.6793C38.9782 15.8413 37.7247 15.3749 36.4272 15.3542ZM32.9324 21.7195C32.9164 21.5784 32.9097 21.4363 32.9124 21.2942C32.9232 20.5758 33.1467 19.8779 33.5531 19.2938C33.9594 18.7097 34.5293 18.2673 35.1865 18.0257C35.8437 17.7842 36.5568 17.7549 37.2306 17.942C37.9043 18.129 38.5065 18.5234 38.9567 19.0724L32.9324 21.7195Z" fill="#3A3A3A"/>
<path d="M45.3139 12.6519V24.2263L47.2645 25.0523L46.342 27.3346L44.4128 26.5087C44.025 26.3339 43.6948 26.047 43.4623 25.6827C43.2043 25.252 43.0746 24.7528 43.0893 24.2469V12.6409L45.3139 12.6519Z" fill="#3A3A3A"/>
<path d="M52.3448 17.9994C52.8048 17.8418 53.292 17.7863 53.7743 17.8367C54.2566 17.8871 54.723 18.0423 55.1428 18.2919C55.5627 18.5415 55.9263 18.88 56.2098 19.2849C56.4933 19.6898 56.6901 20.152 56.7874 20.6411L59.1364 20.1482C58.9712 19.317 58.6367 18.5312 58.155 17.8428C57.6732 17.1544 57.0551 16.5791 56.3415 16.1547C55.628 15.7303 54.8351 15.4666 54.0153 15.381C53.1954 15.2953 52.3673 15.3897 51.5854 15.6578L52.3448 17.9994Z" fill="#3A3A3A"/>
<path d="M49.5733 25.8374L51.1602 23.9886C50.7971 23.6575 50.5063 23.2508 50.3072 22.7954C50.108 22.34 50.005 21.8463 50.005 21.3469C50.005 20.8475 50.108 20.3537 50.3072 19.8983C50.5063 19.4429 50.7971 19.0363 51.1602 18.7052L49.5719 16.8564C48.9545 17.419 48.4602 18.1101 48.1216 18.8841C47.783 19.6581 47.6079 20.4973 47.6079 21.3462C47.6079 22.1951 47.783 23.0343 48.1216 23.8083C48.4602 24.5823 48.9545 25.2734 49.5719 25.836L49.5733 25.8374Z" fill="#3A3A3A"/>
<path d="M56.7872 22.0557C56.6897 22.5446 56.4926 23.0067 56.2088 23.4114C55.9251 23.8161 55.5613 24.1542 55.1413 24.4034C54.7213 24.6527 54.2548 24.8074 53.7725 24.8574C53.2901 24.9073 52.803 24.8514 52.3432 24.6932L51.5825 27.0334C52.3641 27.3018 53.192 27.3966 54.0117 27.3115C54.8314 27.2264 55.6242 26.9633 56.338 26.5397C57.0518 26.116 57.6702 25.5414 58.1525 24.8537C58.6349 24.1659 58.9701 23.3808 59.1362 22.5499L56.7872 22.0557Z" fill="#3A3A3A"/>
</svg>
