<svg width="231" height="99" viewBox="0 0 231 99" fill="none" xmlns="http://www.w3.org/2000/svg">
<path d="M61.2677 0.517708H5.56979C4.11578 0.496748 2.71226 1.0096 1.66781 1.9435C0.623348 2.87741 0.02345 4.15593 0 5.49797L0 35.3795C0.02345 36.7216 0.623348 38.0001 1.66781 38.934C2.71226 39.8679 4.11578 40.3808 5.56979 40.3598H61.2677C62.7217 40.3808 64.1253 39.8679 65.1697 38.934C66.2142 38.0001 66.8141 36.7216 66.8375 35.3795V5.49797C66.8141 4.15593 66.2142 2.87741 65.1697 1.9435C64.1253 1.0096 62.7217 0.496748 61.2677 0.517708Z" fill="#EAEAEA"/>
<path d="M14.7969 14.516C15.5506 14.2569 16.349 14.1656 17.1395 14.2478C17.93 14.3301 18.6946 14.5841 19.3826 14.9932C20.0707 15.4023 20.6666 15.9571 21.131 16.6209C21.5954 17.2847 21.9176 18.0424 22.0765 18.844L25.9255 18.0359C25.6547 16.6739 25.1064 15.3866 24.3169 14.2588C23.5274 13.1309 22.5145 12.1884 21.3453 11.4932C20.176 10.798 18.8768 10.366 17.5335 10.2257C16.1902 10.0854 14.8333 10.2401 13.5522 10.6794L14.7969 14.516Z" fill="#3A3A3A"/>
<path d="M10.2553 27.3549L12.857 24.3264C12.2622 23.7839 11.7859 23.1176 11.4598 22.3715C11.1336 21.6254 10.965 20.8165 10.965 19.9984C10.965 19.1802 11.1336 18.3713 11.4598 17.6252C11.7859 16.8792 12.2622 16.2129 12.857 15.6704L10.254 12.6418C9.24218 13.5635 8.43205 14.6959 7.87719 15.9641C7.32233 17.2323 7.0354 18.6074 7.0354 19.9984C7.0354 21.3893 7.32233 22.7644 7.87719 24.0326C8.43205 25.3009 9.24218 26.4332 10.254 27.3549H10.2553Z" fill="#3A3A3A"/>
<path d="M22.0753 21.158C21.9156 21.9591 21.5927 22.7162 21.1279 23.3793C20.6631 24.0424 20.067 24.5965 19.3788 25.0049C18.6907 25.4133 17.9263 25.6667 17.136 25.7485C16.3458 25.8302 15.5476 25.7384 14.7944 25.4791L13.5483 29.3143C14.8287 29.7539 16.185 29.9091 17.5279 29.7696C18.8707 29.6301 20.1696 29.1991 21.3389 28.5051C22.5082 27.811 23.5213 26.8696 24.3115 25.7429C25.1016 24.6163 25.6509 23.3299 25.923 21.9688L22.0753 21.158Z" fill="#3A3A3A"/>
<path d="M38.7374 23.8669C38.1889 24.4246 37.4728 24.774 36.7063 24.858C35.9398 24.9421 35.1683 24.7557 34.518 24.3295L33.2439 26.4191C34.3498 27.1372 35.6585 27.4503 36.9586 27.308C38.2587 27.1656 39.4741 26.576 40.4086 25.6345L38.7374 23.8669Z" fill="#3A3A3A"/>
<path d="M36.4272 15.3542C35.3715 15.3381 34.3314 15.6179 33.4182 16.1636C32.505 16.7093 31.7532 17.5004 31.2431 18.4523C30.733 19.4042 30.4839 20.4809 30.5224 21.5674C30.561 22.6538 30.8857 23.709 31.4618 24.6201L42.0062 19.9796C41.7097 18.6788 40.9997 17.5172 39.989 16.6793C38.9782 15.8413 37.7247 15.3749 36.4272 15.3542ZM32.9324 21.7195C32.9164 21.5784 32.9097 21.4363 32.9124 21.2942C32.9232 20.5758 33.1467 19.8779 33.5531 19.2938C33.9594 18.7097 34.5293 18.2673 35.1865 18.0257C35.8437 17.7842 36.5568 17.7549 37.2306 17.942C37.9043 18.129 38.5065 18.5234 38.9567 19.0724L32.9324 21.7195Z" fill="#3A3A3A"/>
<path d="M45.3139 12.6519V24.2263L47.2645 25.0523L46.342 27.3346L44.4128 26.5087C44.025 26.3339 43.6948 26.047 43.4623 25.6827C43.2043 25.252 43.0746 24.7528 43.0893 24.2469V12.6409L45.3139 12.6519Z" fill="#3A3A3A"/>
<path d="M52.3448 17.9994C52.8048 17.8418 53.292 17.7863 53.7743 17.8367C54.2566 17.8871 54.723 18.0423 55.1428 18.2919C55.5627 18.5415 55.9263 18.88 56.2098 19.2849C56.4933 19.6898 56.6901 20.152 56.7874 20.6411L59.1364 20.1482C58.9712 19.317 58.6367 18.5312 58.155 17.8428C57.6732 17.1544 57.0551 16.5791 56.3415 16.1547C55.628 15.7303 54.8351 15.4666 54.0153 15.381C53.1954 15.2953 52.3673 15.3897 51.5854 15.6578L52.3448 17.9994Z" fill="#3A3A3A"/>
<path d="M49.5733 25.8374L51.1602 23.9886C50.7971 23.6575 50.5063 23.2508 50.3072 22.7954C50.108 22.34 50.005 21.8463 50.005 21.3469C50.005 20.8475 50.108 20.3537 50.3072 19.8983C50.5063 19.4429 50.7971 19.0363 51.1602 18.7052L49.5719 16.8564C48.9545 17.419 48.4602 18.1101 48.1216 18.8841C47.783 19.6581 47.6079 20.4973 47.6079 21.3462C47.6079 22.1951 47.783 23.0343 48.1216 23.8083C48.4602 24.5823 48.9545 25.2734 49.5719 25.836L49.5733 25.8374Z" fill="#3A3A3A"/>
<path d="M56.7872 22.0557C56.6897 22.5446 56.4926 23.0067 56.2088 23.4114C55.9251 23.8161 55.5613 24.1542 55.1413 24.4034C54.7213 24.6527 54.2548 24.8074 53.7725 24.8574C53.2901 24.9073 52.803 24.8514 52.3432 24.6932L51.5825 27.0334C52.3641 27.3018 53.192 27.3966 54.0117 27.3115C54.8314 27.2264 55.6242 26.9633 56.338 26.5397C57.0518 26.116 57.6702 25.5414 58.1525 24.8537C58.6349 24.1659 58.9701 23.3808 59.1362 22.5499L56.7872 22.0557Z" fill="#3A3A3A"/>
<path d="M61.2677 58.2406H5.56979C4.11578 58.2196 2.71226 58.7325 1.66781 59.6664C0.623348 60.6003 0.02345 61.8788 0 63.2209L0 93.1024C0.02345 94.4445 0.623348 95.723 1.66781 96.6569C2.71226 97.5908 4.11578 98.1037 5.56979 98.0827H61.2677C62.7217 98.1037 64.1253 97.5908 65.1697 96.6569C66.2142 95.723 66.8141 94.4445 66.8375 93.1024V63.2209C66.8141 61.8788 66.2142 60.6003 65.1697 59.6664C64.1253 58.7325 62.7217 58.2196 61.2677 58.2406Z" fill="#EAEAEA"/>
<path d="M143.349 0.517708H87.6509C86.1968 0.496748 84.7933 1.0096 83.7489 1.9435C82.7044 2.87741 82.1045 4.15593 82.0811 5.49797V35.3795C82.1045 36.7216 82.7044 38.0001 83.7489 38.934C84.7933 39.8679 86.1968 40.3808 87.6509 40.3598H143.349C144.803 40.3808 146.206 39.8679 147.251 38.934C148.295 38.0001 148.895 36.7216 148.919 35.3795V5.49797C148.895 4.15593 148.295 2.87741 147.251 1.9435C146.206 1.0096 144.803 0.496748 143.349 0.517708Z" fill="#EAEAEA"/>
<path d="M108.035 28.0418L110.536 12.8354H114.585L112.084 28.0418H108.035Z" fill="#3A3A3A"/>
<path d="M126.499 13.229C125.696 12.9209 124.439 12.5908 122.869 12.5908C118.867 12.5908 116.048 14.6538 116.024 17.6093C116.002 19.7938 118.036 21.0123 119.573 21.7403C121.149 22.4841 121.679 22.9615 121.672 23.6262C121.662 24.6455 120.412 25.1115 119.248 25.1115C117.628 25.1109 116.766 24.8808 115.436 24.3133L114.914 24.071L114.346 27.4752C115.292 27.8998 117.041 28.2681 118.857 28.2867C123.113 28.2857 125.878 26.2483 125.909 23.0913C125.924 21.3616 124.845 20.0453 122.509 18.9597C121.093 18.2572 120.226 17.7879 120.235 17.0749C120.235 16.443 120.97 15.7672 122.555 15.7672C123.879 15.7459 124.838 16.0414 125.586 16.3496L125.948 16.525L126.499 13.229Z" fill="#3A3A3A"/>
<path d="M133.402 12.8354C132.432 12.8354 131.731 13.1405 131.305 14.1305L125.304 28.0423H129.591L130.424 25.7121H135.546L136.022 28.0423H139.834L136.499 12.8359H133.402L133.402 12.8354ZM131.562 22.6694C131.896 21.7937 133.175 18.4193 133.175 18.4193C133.151 18.4592 133.507 17.5393 133.712 16.9686L133.986 18.279C133.986 18.279 134.76 21.9089 134.923 22.6698H131.562V22.6694Z" fill="#3A3A3A"/>
<path d="M100.65 23.2592L100.294 21.1745C99.5548 18.7445 97.2613 16.1152 94.6912 14.7978L98.2687 28.0418H102.557L108.988 12.8354H104.701L100.65 23.2592Z" fill="#3A3A3A"/>
<path d="M90.2893 12.8354V13.081C95.3702 14.3393 98.8977 17.5203 100.294 21.1747L98.826 14.1332C98.5809 13.1709 97.8381 12.869 96.9593 12.8356L90.2893 12.8354Z" fill="#3A3A3A"/>
<path d="M143.349 58.2406H87.6509C86.1968 58.2196 84.7933 58.7325 83.7489 59.6664C82.7044 60.6003 82.1045 61.8788 82.0811 63.2209V93.1024C82.1045 94.4445 82.7044 95.723 83.7489 96.6569C84.7933 97.5908 86.1968 98.1037 87.6509 98.0827H143.349C144.803 98.1037 146.206 97.5908 147.251 96.6569C148.295 95.723 148.895 94.4445 148.919 93.1024V63.2209C148.895 61.8788 148.295 60.6003 147.251 59.6664C146.206 58.7325 144.803 58.2196 143.349 58.2406Z" fill="#EAEAEA"/>
<path d="M225.43 0.517708H169.732C168.278 0.496748 166.875 1.0096 165.83 1.9435C164.786 2.87741 164.186 4.15593 164.163 5.49797V35.3795C164.186 36.7216 164.786 38.0001 165.83 38.934C166.875 39.8679 168.278 40.3808 169.732 40.3598H225.43C226.884 40.3808 228.288 39.8679 229.332 38.934C230.377 38.0001 230.977 36.7216 231 35.3795V5.49797C230.977 4.15593 230.377 2.87741 229.332 1.9435C228.288 1.0096 226.884 0.496748 225.43 0.517708Z" fill="#EAEAEA"/>
<path d="M225.43 58.2406H169.732C168.278 58.2196 166.874 58.7325 165.83 59.6664C164.785 60.6003 164.186 61.8788 164.162 63.2209V93.1024C164.186 94.4445 164.785 95.723 165.83 96.6569C166.874 97.5908 168.278 98.1037 169.732 98.0827H225.43C226.884 98.1037 228.287 97.5908 229.332 96.6569C230.376 95.723 230.976 94.4445 231 93.1024V63.2209C230.976 61.8788 230.376 60.6003 229.332 59.6664C228.287 58.7325 226.884 58.2196 225.43 58.2406Z" fill="#EAEAEA"/>
<path d="M186.922 34.6228V32.7476C186.932 32.5899 186.91 32.4316 186.857 32.2834C186.803 32.1352 186.72 32.0005 186.612 31.8881C186.504 31.7757 186.374 31.6883 186.23 31.6317C186.087 31.5752 185.934 31.5507 185.78 31.5599C185.58 31.5464 185.379 31.5886 185.2 31.682C185.02 31.7755 184.869 31.9168 184.76 32.0913C184.662 31.922 184.521 31.7834 184.352 31.6899C184.183 31.5963 183.993 31.5515 183.801 31.5599C183.634 31.5513 183.468 31.5876 183.319 31.6655C183.17 31.7433 183.043 31.8599 182.951 32.0037V31.635H182.32V34.6228H182.957V32.9789C182.944 32.8767 182.952 32.7727 182.982 32.6743C183.012 32.5759 183.063 32.4856 183.131 32.4097C183.199 32.3339 183.282 32.2744 183.375 32.2356C183.468 32.1967 183.568 32.1795 183.668 32.185C184.087 32.185 184.299 32.4663 184.299 32.9726V34.6353H184.937V32.9789C184.924 32.8768 184.932 32.773 184.963 32.6749C184.993 32.5767 185.044 32.4866 185.111 32.4109C185.179 32.3352 185.262 32.2757 185.355 32.2367C185.447 32.1977 185.547 32.18 185.647 32.185C186.078 32.185 186.284 32.4663 186.284 32.9726V34.6353L186.922 34.6228ZM196.352 31.635H195.314V30.7286H194.677V31.635H194.1V32.2288H194.689V33.6039C194.689 34.2978 194.95 34.7103 195.697 34.7103C195.976 34.7113 196.249 34.6311 196.486 34.479L196.304 33.9227C196.134 34.0267 195.942 34.0848 195.745 34.0915C195.442 34.0915 195.326 33.8915 195.326 33.5914V32.2288H196.358L196.352 31.635ZM201.737 31.5599C201.583 31.5553 201.431 31.5935 201.296 31.6705C201.161 31.7475 201.05 31.8605 200.972 31.9975V31.635H200.347V34.6228H200.978V32.9476C200.978 32.4538 201.185 32.1788 201.585 32.1788C201.72 32.1769 201.854 32.2023 201.98 32.2538L202.174 31.6287C202.03 31.5756 201.878 31.5481 201.725 31.5474L201.737 31.5599ZM193.596 31.8725C193.239 31.6537 192.828 31.5452 192.412 31.5599C191.678 31.5599 191.198 31.9225 191.198 32.5163C191.198 33.0039 191.55 33.3039 192.2 33.3977L192.504 33.4414C192.85 33.4914 193.013 33.5852 193.013 33.7539C193.013 33.9852 192.783 34.1165 192.352 34.1165C192.005 34.1268 191.665 34.0167 191.387 33.8039L191.083 34.3103C191.451 34.5747 191.891 34.7105 192.34 34.6978C193.177 34.6978 193.663 34.2915 193.663 33.7227C193.663 33.1539 193.281 32.9226 192.649 32.8288L192.346 32.7851C192.073 32.7476 191.854 32.6913 191.854 32.4913C191.854 32.2913 192.06 32.1413 192.406 32.1413C192.726 32.1451 193.04 32.2333 193.317 32.3975L193.596 31.8725ZM210.506 31.5599C210.352 31.5553 210.2 31.5935 210.065 31.6705C209.931 31.7475 209.819 31.8605 209.741 31.9975V31.635H209.116V34.6228H209.747V32.9476C209.747 32.4538 209.954 32.1788 210.354 32.1788C210.489 32.1769 210.623 32.2023 210.749 32.2538L210.943 31.6287C210.799 31.5756 210.647 31.5481 210.494 31.5474L210.506 31.5599ZM202.371 33.1226C202.364 33.3326 202.399 33.5419 202.475 33.737C202.55 33.9322 202.664 34.109 202.81 34.2561C202.956 34.4032 203.13 34.5173 203.321 34.5912C203.512 34.6652 203.716 34.6972 203.919 34.6853C204.298 34.7052 204.671 34.578 204.963 34.329L204.66 33.8039C204.442 33.9753 204.176 34.0696 203.901 34.0727C203.668 34.0533 203.45 33.9441 203.291 33.7669C203.133 33.5897 203.044 33.3574 203.044 33.1164C203.044 32.8753 203.133 32.6431 203.291 32.4658C203.45 32.2886 203.668 32.1795 203.901 32.16C204.176 32.1632 204.442 32.2574 204.66 32.4288L204.963 31.9037C204.671 31.6547 204.298 31.5276 203.919 31.5474C203.716 31.5356 203.512 31.5676 203.321 31.6415C203.13 31.7154 202.956 31.8296 202.81 31.9766C202.664 32.1237 202.55 32.3005 202.475 32.4957C202.399 32.6909 202.364 32.9002 202.371 33.1101V33.1226ZM208.284 33.1226V31.635H207.653V31.9975C207.546 31.8554 207.407 31.7417 207.249 31.6656C207.09 31.5895 206.917 31.5533 206.742 31.5599C206.34 31.5599 205.954 31.7246 205.669 32.0176C205.384 32.3107 205.225 32.7082 205.225 33.1226C205.225 33.5371 205.384 33.9345 205.669 34.2276C205.954 34.5207 206.34 34.6853 206.742 34.6853C206.917 34.6919 207.09 34.6557 207.249 34.5796C207.407 34.5036 207.546 34.3898 207.653 34.2477V34.6103H208.284V33.1226ZM205.935 33.1226C205.945 32.9467 206.005 32.7777 206.107 32.6364C206.209 32.4951 206.349 32.3876 206.51 32.3272C206.671 32.2669 206.845 32.2562 207.011 32.2966C207.178 32.3369 207.329 32.4266 207.447 32.5545C207.565 32.6823 207.644 32.8429 207.674 33.0163C207.704 33.1897 207.684 33.3684 207.617 33.5304C207.55 33.6925 207.438 33.8307 207.296 33.9282C207.153 34.0256 206.986 34.0781 206.815 34.079C206.695 34.0805 206.576 34.0565 206.465 34.0083C206.354 33.9601 206.254 33.8889 206.172 33.7991C206.089 33.7093 206.025 33.6028 205.985 33.4864C205.944 33.37 205.927 33.2461 205.935 33.1226ZM198.316 31.5599C197.914 31.5657 197.53 31.7359 197.249 32.0331C196.969 32.3303 196.814 32.73 196.82 33.1445C196.825 33.5589 196.991 33.9541 197.279 34.2431C197.568 34.532 197.956 34.6911 198.359 34.6853C198.795 34.7084 199.225 34.5636 199.564 34.279L199.26 33.7977C199.02 33.9956 198.724 34.1056 198.416 34.1102C198.208 34.1287 198 34.0626 197.838 33.9261C197.676 33.7895 197.572 33.5932 197.548 33.3789H199.703C199.703 33.2976 199.703 33.2164 199.703 33.1289C199.703 32.1913 199.139 31.5662 198.325 31.5662L198.316 31.5599ZM198.316 32.1413C198.411 32.1392 198.505 32.1563 198.593 32.1916C198.681 32.2269 198.761 32.2798 198.829 32.3471C198.898 32.4144 198.952 32.495 198.99 32.584C199.028 32.6731 199.049 32.7691 199.051 32.8663H197.533C197.544 32.6657 197.631 32.4775 197.775 32.342C197.919 32.2065 198.109 32.1344 198.304 32.1413H198.316ZM214.133 33.1289V30.4348H213.526V31.9975C213.419 31.8554 213.28 31.7417 213.122 31.6656C212.964 31.5895 212.79 31.5533 212.616 31.5599C212.213 31.5599 211.827 31.7246 211.542 32.0176C211.258 32.3107 211.098 32.7082 211.098 33.1226C211.098 33.5371 211.258 33.9345 211.542 34.2276C211.827 34.5207 212.213 34.6853 212.616 34.6853C212.79 34.6919 212.964 34.6557 213.122 34.5796C213.28 34.5036 213.419 34.3898 213.526 34.2477V34.6103H214.133V33.1289ZM215.186 34.1884C215.226 34.1879 215.265 34.1953 215.302 34.2102C215.337 34.2249 215.369 34.2461 215.396 34.2728C215.423 34.2997 215.444 34.3315 215.46 34.3665C215.475 34.403 215.483 34.4424 215.483 34.4822C215.483 34.5219 215.475 34.5613 215.46 34.5978C215.444 34.6328 215.423 34.6646 215.396 34.6916C215.369 34.7182 215.337 34.7394 215.302 34.7541C215.265 34.7706 215.226 34.7791 215.186 34.7791C215.129 34.7786 215.073 34.7613 215.024 34.7292C214.976 34.6971 214.937 34.6516 214.913 34.5978C214.898 34.5612 214.89 34.5219 214.89 34.4822C214.89 34.4424 214.898 34.4031 214.913 34.3665C214.929 34.3315 214.95 34.2997 214.977 34.2728C215.004 34.2461 215.036 34.2249 215.071 34.2102C215.111 34.1941 215.153 34.1866 215.196 34.1884H215.186ZM215.186 34.7166C215.217 34.7167 215.247 34.7104 215.274 34.6978C215.301 34.6858 215.324 34.6688 215.344 34.6478C215.382 34.6051 215.403 34.5494 215.403 34.4915C215.403 34.4337 215.382 34.3779 215.344 34.3353C215.324 34.3142 215.301 34.2972 215.274 34.2853C215.247 34.2728 215.217 34.2664 215.186 34.2665C215.156 34.2667 215.126 34.273 215.098 34.2853C215.071 34.2968 215.046 34.3138 215.026 34.3353C214.988 34.3779 214.967 34.4337 214.967 34.4915C214.967 34.5494 214.988 34.6051 215.026 34.6478C215.046 34.6692 215.071 34.6862 215.098 34.6978C215.129 34.7114 215.162 34.7178 215.196 34.7166H215.186ZM215.205 34.3446C215.233 34.3432 215.261 34.3521 215.284 34.3696C215.293 34.3776 215.3 34.3876 215.305 34.3991C215.31 34.4105 215.312 34.4229 215.311 34.4353C215.311 34.4457 215.31 34.456 215.306 34.4657C215.302 34.4754 215.297 34.4842 215.29 34.4915C215.272 34.508 215.25 34.5179 215.226 34.5197L215.314 34.6228H215.244L215.162 34.5197H215.135V34.6228H215.077V34.3478L215.205 34.3446ZM215.138 34.3978V34.4728H215.205C215.217 34.4764 215.229 34.4764 215.241 34.4728C215.243 34.4684 215.244 34.4636 215.244 34.4587C215.244 34.4538 215.243 34.449 215.241 34.4446C215.243 34.4403 215.244 34.4355 215.244 34.4306C215.244 34.4257 215.243 34.4209 215.241 34.4165C215.229 34.4129 215.217 34.4129 215.205 34.4165L215.138 34.3978ZM211.799 33.1289C211.809 32.953 211.869 32.784 211.971 32.6427C212.073 32.5014 212.213 32.3939 212.374 32.3335C212.535 32.2731 212.709 32.2625 212.876 32.3028C213.042 32.3432 213.194 32.4328 213.311 32.5607C213.429 32.6886 213.508 32.8491 213.538 33.0225C213.568 33.1959 213.549 33.3746 213.481 33.5367C213.414 33.6987 213.303 33.837 213.16 33.9344C213.017 34.0319 212.85 34.0843 212.679 34.0852C212.559 34.0868 212.44 34.0627 212.329 34.0146C212.218 33.9664 212.119 33.8952 212.036 33.8053C211.953 33.7155 211.89 33.609 211.849 33.4926C211.808 33.3762 211.791 33.2524 211.799 33.1289ZM190.482 33.1289V31.635H189.851V31.9975C189.743 31.8554 189.605 31.7417 189.447 31.6656C189.288 31.5895 189.115 31.5533 188.94 31.5599C188.538 31.5599 188.152 31.7246 187.867 32.0176C187.582 32.3107 187.422 32.7082 187.422 33.1226C187.422 33.5371 187.582 33.9345 187.867 34.2276C188.152 34.5207 188.538 34.6853 188.94 34.6853C189.115 34.6919 189.288 34.6557 189.447 34.5796C189.605 34.5036 189.743 34.3898 189.851 34.2477V34.6103H190.482V33.1289ZM188.133 33.1289C188.143 32.953 188.203 32.784 188.305 32.6427C188.407 32.5014 188.547 32.3939 188.708 32.3335C188.868 32.2731 189.043 32.2625 189.209 32.3028C189.376 32.3432 189.527 32.4328 189.645 32.5607C189.763 32.6886 189.842 32.8491 189.872 33.0225C189.902 33.1959 189.882 33.3746 189.815 33.5367C189.748 33.6987 189.636 33.837 189.494 33.9344C189.351 34.0319 189.184 34.0843 189.013 34.0852C188.892 34.0877 188.772 34.0643 188.661 34.0165C188.55 33.9687 188.449 33.8976 188.366 33.8077C188.282 33.7177 188.218 33.611 188.177 33.4941C188.136 33.3773 188.119 33.2529 188.127 33.1289H188.133Z" fill="#3A3A3A"/>
<path d="M193.437 26.5079V8.91523H202.898V26.5079H193.437Z" fill="#3A3A3A" stroke="#EAEAEA" stroke-width="0.1"/>
<path d="M193.894 17.7148C193.892 15.9959 194.27 14.2991 195 12.7528C195.711 11.2443 196.739 9.91747 198.008 8.86773C196.43 7.62018 194.549 6.84408 192.57 6.6255C190.551 6.40246 188.511 6.76886 186.684 7.68302C184.857 8.59719 183.316 10.0224 182.238 11.7961C181.16 13.5698 180.588 15.6203 180.588 17.7132C180.588 19.8061 181.16 21.8566 182.238 23.6303C183.316 25.404 184.857 26.8292 186.684 27.7434C188.511 28.6575 190.551 29.0239 192.57 28.8009C194.549 28.5823 196.43 27.8062 198.008 26.5587C196.739 25.5093 195.712 24.1829 195 22.6751C194.271 21.1293 193.893 19.4331 193.894 17.7148ZM193.894 17.7148C193.894 17.7147 193.894 17.7147 193.894 17.7147L193.994 17.7148L193.894 17.7149C193.894 17.7148 193.894 17.7148 193.894 17.7148ZM198.167 26.5595C198.141 26.5381 198.114 26.5166 198.088 26.4949L198.087 26.6235C198.114 26.6023 198.141 26.581 198.167 26.5595Z" fill="#3A3A3A" stroke="#EAEAEA" stroke-width="0.2"/>
<path d="M215.748 17.7131C215.748 19.8062 215.176 21.8568 214.098 23.6306C213.02 25.4044 211.479 26.8295 209.651 27.7436C207.824 28.6576 205.784 29.0237 203.765 28.8004C201.786 28.5815 199.904 27.805 198.326 26.557C199.595 25.5067 200.622 24.18 201.334 22.672C202.064 21.1262 202.443 19.43 202.443 17.7116C202.443 15.9931 202.064 14.2969 201.334 12.7511C200.622 11.2431 199.595 9.91643 198.326 8.86613C199.904 7.61815 201.786 6.84164 203.765 6.62274C205.784 6.39938 207.824 6.76555 209.651 7.67957C211.479 8.59361 213.02 10.0188 214.098 11.7925C215.176 13.5663 215.748 15.6169 215.748 17.71V17.7131Z" fill="#3A3A3A" stroke="#EAEAEA" stroke-width="0.2"/>
<path d="M214.804 24.6829V24.3204H214.947V24.2454H214.585V24.3204H214.74V24.6829H214.804ZM215.505 24.6829V24.2454H215.396L215.268 24.5579L215.141 24.2454H215.044V24.6829H215.123V24.3548L215.241 24.6392H215.323L215.441 24.3548V24.686L215.505 24.6829Z" fill="#3A3A3A"/>
<path d="M22.0477 70.124C21.4257 70.124 20.9214 70.6432 20.9214 71.2837V85.1996C20.9214 85.84 21.4256 86.3593 22.0477 86.3593C22.6697 86.3593 23.174 85.8401 23.174 85.1996V71.2837C23.174 70.6433 22.6697 70.124 22.0477 70.124Z" fill="#3A3A3A"/>
<path d="M31.0577 70.124C30.4357 70.124 29.9314 70.6432 29.9314 71.2837V80.561C29.9314 81.2014 30.4356 81.7206 31.0577 81.7206C31.6796 81.7206 32.184 81.2014 32.184 80.561V71.2837C32.184 70.6433 31.6797 70.124 31.0577 70.124Z" fill="#3A3A3A"/>
<path d="M40.8184 70.124C40.1965 70.124 39.6921 70.6432 39.6921 71.2837V80.561C39.6921 81.2014 40.1964 81.7206 40.8184 81.7206C41.4405 81.7206 41.9447 81.2014 41.9447 80.561V71.2837C41.9447 70.6433 41.4405 70.124 40.8184 70.124Z" fill="#3A3A3A"/>
<path d="M45.3235 70.124C44.7016 70.124 44.1973 70.6432 44.1973 71.2837V85.1996C44.1973 85.84 44.7015 86.3593 45.3235 86.3593C45.9456 86.3593 46.4498 85.8401 46.4498 85.1996V71.2837C46.4498 70.6433 45.9455 70.124 45.3235 70.124Z" fill="#3A3A3A"/>
<path d="M31.0577 86.3594C31.6797 86.3594 32.184 85.8402 32.184 85.1997C32.184 84.5592 31.6797 84.04 31.0577 84.04C30.4356 84.04 29.9314 84.5592 29.9314 85.1997C29.9314 85.8402 30.4356 86.3594 31.0577 86.3594Z" fill="#3A3A3A"/>
<path d="M35.5628 70.124C34.9408 70.124 34.4365 70.6432 34.4365 71.2837V80.561C34.4365 81.2014 34.9408 81.7206 35.5628 81.7206C36.1847 81.7206 36.689 81.2014 36.689 80.561V71.2837C36.689 70.6433 36.1848 70.124 35.5628 70.124Z" fill="#3A3A3A"/>
<path d="M35.5628 86.3594C36.1848 86.3594 36.689 85.8402 36.689 85.1997C36.689 84.5592 36.1848 84.04 35.5628 84.04C34.9408 84.04 34.4365 84.5592 34.4365 85.1997C34.4365 85.8402 34.9408 86.3594 35.5628 86.3594Z" fill="#3A3A3A"/>
<path d="M26.5526 70.124C25.9306 70.124 25.4263 70.6432 25.4263 71.2837V80.561C25.4263 81.2014 25.9305 81.7206 26.5526 81.7206C27.1746 81.7206 27.6788 81.2014 27.6788 80.561V71.2837C27.6788 70.6433 27.1745 70.124 26.5526 70.124Z" fill="#3A3A3A"/>
<path d="M26.5526 86.3594C27.1746 86.3594 27.6788 85.8402 27.6788 85.1997C27.6788 84.5592 27.1746 84.04 26.5526 84.04C25.9305 84.04 25.4263 84.5592 25.4263 85.1997C25.4263 85.8402 25.9305 86.3594 26.5526 86.3594Z" fill="#3A3A3A"/>
<path d="M40.8184 86.3594C41.4404 86.3594 41.9447 85.8402 41.9447 85.1997C41.9447 84.5592 41.4404 84.04 40.8184 84.04C40.1964 84.04 39.6921 84.5592 39.6921 85.1997C39.6921 85.8402 40.1964 86.3594 40.8184 86.3594Z" fill="#3A3A3A"/>
<path d="M47.576 65.4851H19.7953C17.9322 65.4851 16.4165 67.0458 16.4165 68.9641V87.5186C16.4165 89.4369 17.9322 90.9976 19.7953 90.9976H47.576C49.4391 90.9976 50.9548 89.4369 50.9548 87.5186V68.9641C50.9548 67.0458 49.4391 65.4851 47.576 65.4851ZM48.7023 87.5186C48.7023 88.1581 48.197 88.6783 47.576 88.6783H19.7953C19.1742 88.6783 18.669 88.1581 18.669 87.5186V68.9641C18.669 68.3247 19.1742 67.8044 19.7953 67.8044H47.576C48.197 67.8044 48.7023 68.3247 48.7023 68.9641V87.5186Z" fill="#3A3A3A"/>
<g clip-path="url(#clip0_2783_306)">
<path d="M97.5877 84.7116C101.558 84.7307 105.182 81.5218 105.182 77.6181C105.182 73.3496 101.558 70.3992 97.5877 70.4004H94.1708C90.1529 70.3992 86.8457 73.3503 86.8457 77.6181C86.8457 81.5227 90.1529 84.7307 94.1708 84.7116H97.5877Z" fill="#3A3A3A"/>
<path d="M95.6945 81.4182V73.667C97.276 74.2646 98.3987 75.7731 98.4013 77.5423C98.3987 79.312 97.276 80.8195 95.6945 81.4182ZM89.9729 77.5423C89.9764 75.7741 91.0973 74.2666 92.6779 73.6671V81.4167C91.0973 80.8178 89.9764 79.3111 89.9729 77.5423ZM94.1865 70.991C90.515 70.9922 87.5399 73.9241 87.5391 77.5423C87.5399 81.1602 90.515 84.0916 94.1865 84.0927C97.8592 84.0916 100.835 81.1602 100.835 77.5423C100.835 73.9241 97.8592 70.9922 94.1865 70.991Z" fill="#EAEAEA"/>
<path d="M107.51 73.4784C107.51 72.8015 107.152 72.8459 106.808 72.8388V72.6432C107.106 72.6575 107.411 72.6575 107.71 72.6575C108.03 72.6575 108.466 72.6432 109.031 72.6432C111.009 72.6432 112.086 73.9448 112.086 75.2777C112.086 76.0229 111.644 77.8969 108.939 77.8969C108.55 77.8969 108.19 77.8821 107.832 77.8821C107.488 77.8821 107.152 77.8892 106.808 77.8969V77.7011C107.266 77.6559 107.488 77.6408 107.51 77.129V73.4784ZM108.259 77.0087C108.259 77.5882 108.68 77.6559 109.054 77.6559C110.704 77.6559 111.246 76.429 111.246 75.3074C111.246 73.9004 110.329 72.8844 108.855 72.8844C108.541 72.8844 108.397 72.9064 108.259 72.9145V77.0087ZM112.354 77.7013H112.499C112.713 77.7013 112.866 77.7013 112.866 77.4524V75.413C112.866 75.0821 112.751 75.0361 112.468 74.8865V74.7659C112.827 74.6599 113.256 74.5177 113.286 74.4951C113.339 74.465 113.385 74.457 113.423 74.457C113.461 74.457 113.477 74.5023 113.477 74.5629V77.4524C113.477 77.7013 113.645 77.7013 113.859 77.7013H113.989V77.8971C113.729 77.8971 113.461 77.8821 113.187 77.8821C112.912 77.8821 112.637 77.8894 112.354 77.8971V77.7013ZM113.172 73.2982C112.973 73.2982 112.797 73.1176 112.797 72.9218C112.797 72.7334 112.981 72.5598 113.172 72.5598C113.37 72.5598 113.546 72.7185 113.546 72.9218C113.546 73.1253 113.377 73.2982 113.172 73.2982ZM114.714 75.458C114.714 75.1797 114.63 75.1047 114.272 74.9617V74.8187C114.6 74.7134 114.913 74.6152 115.28 74.457C115.303 74.457 115.325 74.4724 115.325 74.5322V75.0216C115.761 74.7134 116.136 74.457 116.648 74.457C117.297 74.457 117.526 74.9237 117.526 75.5109V77.4524C117.526 77.7013 117.694 77.7013 117.908 77.7013H118.045V77.8971C117.777 77.8971 117.51 77.8821 117.236 77.8821C116.96 77.8821 116.685 77.8894 116.41 77.8971V77.7013H116.548C116.762 77.7013 116.914 77.7013 116.914 77.4524V75.5036C116.914 75.0741 116.648 74.8638 116.212 74.8638C115.968 74.8638 115.578 75.0592 115.325 75.2249V77.4524C115.325 77.7013 115.494 77.7013 115.708 77.7013H115.845V77.8971C115.578 77.8971 115.31 77.8821 115.035 77.8821C114.761 77.8821 114.485 77.8894 114.21 77.8971V77.7013H114.348C114.562 77.7013 114.714 77.7013 114.714 77.4524V75.458ZM118.626 75.8198C118.61 75.8876 118.61 76.0002 118.626 76.2563C118.671 76.9711 119.138 77.558 119.748 77.558C120.169 77.558 120.498 77.3321 120.78 77.054L120.887 77.1594C120.535 77.6186 120.1 78.0098 119.474 78.0098C118.259 78.0098 118.015 76.8505 118.015 76.3691C118.015 74.8937 119.023 74.457 119.557 74.457C120.177 74.457 120.842 74.8407 120.848 75.6385C120.848 75.6843 120.848 75.7289 120.842 75.7745L120.772 75.8198H118.626ZM119.978 75.5788C120.169 75.5788 120.191 75.4807 120.191 75.3905C120.191 75.0068 119.955 74.6982 119.527 74.6982C119.061 74.6982 118.74 75.0361 118.649 75.5788H119.978ZM121.025 77.7013H121.231C121.444 77.7013 121.597 77.7013 121.597 77.4524V75.3379C121.597 75.1047 121.315 75.0592 121.2 74.9991V74.8865C121.757 74.653 122.063 74.457 122.133 74.457C122.178 74.457 122.2 74.4795 122.2 74.5552V75.2325H122.217C122.407 74.9389 122.728 74.457 123.194 74.457C123.385 74.457 123.629 74.5848 123.629 74.8559C123.629 75.0592 123.485 75.2403 123.271 75.2403C123.033 75.2403 123.033 75.0592 122.766 75.0592C122.636 75.0592 122.208 75.2325 122.208 75.6843V77.4524C122.208 77.7013 122.361 77.7013 122.575 77.7013H123.003V77.8971C122.582 77.8894 122.263 77.8821 121.934 77.8821C121.621 77.8821 121.3 77.8894 121.025 77.8971V77.7013ZM123.965 76.8505C124.065 77.3471 124.37 77.769 124.928 77.769C125.378 77.769 125.546 77.498 125.546 77.2347C125.546 76.3463 123.881 76.6322 123.881 75.4207C123.881 74.9989 124.226 74.457 125.066 74.457C125.31 74.457 125.638 74.525 125.936 74.6757L125.99 75.4427H125.814C125.738 74.969 125.47 74.6981 124.981 74.6981C124.675 74.6981 124.386 74.8711 124.386 75.1947C124.386 76.0759 126.158 75.8044 126.158 76.986C126.158 77.4826 125.753 78.01 124.844 78.01C124.538 78.01 124.179 77.9044 123.912 77.7541L123.828 76.8884L123.965 76.8505ZM133.055 74.0053H132.865C132.719 73.1253 132.085 72.7711 131.23 72.7711C130.351 72.7711 129.075 73.3504 129.075 75.1568C129.075 76.678 130.176 77.769 131.352 77.769C132.108 77.769 132.735 77.2573 132.888 76.4666L133.063 76.5117L132.888 77.6106C132.567 77.8069 131.704 78.0098 131.199 78.0098C129.412 78.0098 128.282 76.8732 128.282 75.1797C128.282 73.6366 129.679 72.5299 131.177 72.5299C131.795 72.5299 132.391 72.7262 132.979 72.9295L133.055 74.0053ZM133.331 77.7013H133.475C133.69 77.7013 133.843 77.7013 133.843 77.4524V73.2608C133.843 72.7711 133.728 72.7561 133.438 72.6734V72.553C133.743 72.4552 134.064 72.3198 134.225 72.229C134.308 72.1843 134.37 72.146 134.392 72.146C134.439 72.146 134.454 72.1916 134.454 72.2519V77.4524C134.454 77.7013 134.622 77.7013 134.836 77.7013H134.965V77.8971C134.706 77.8971 134.439 77.8821 134.164 77.8821C133.889 77.8821 133.614 77.8894 133.331 77.8971V77.7013ZM138.236 77.4826C138.236 77.6186 138.319 77.6258 138.449 77.6258C138.541 77.6258 138.655 77.6186 138.755 77.6186V77.777C138.426 77.8069 137.8 77.9649 137.654 78.01L137.616 77.9873V77.3779C137.158 77.7466 136.806 78.01 136.264 78.01C135.851 78.01 135.424 77.7466 135.424 77.1146V75.1874C135.424 74.9916 135.393 74.8033 134.966 74.7659V74.6227C135.241 74.6154 135.851 74.5703 135.951 74.5703C136.036 74.5703 136.036 74.6227 136.036 74.7884V76.7299C136.036 76.9561 136.036 77.6032 136.7 77.6032C136.96 77.6032 137.303 77.4076 137.624 77.1447V75.1192C137.624 74.969 137.257 74.8865 136.983 74.8112V74.6757C137.67 74.6302 138.098 74.5703 138.174 74.5703C138.236 74.5703 138.236 74.6227 138.236 74.7059V77.4826ZM139.756 74.9991C140.061 74.7432 140.473 74.457 140.894 74.457C141.78 74.457 142.314 75.2178 142.314 76.0378C142.314 77.0237 141.581 78.01 140.488 78.01C139.923 78.01 139.626 77.8291 139.427 77.7466L139.198 77.9193L139.038 77.8368C139.106 77.3928 139.145 76.9561 139.145 76.497V73.2608C139.145 72.7711 139.029 72.7561 138.739 72.6734V72.553C139.046 72.4552 139.366 72.3198 139.526 72.229C139.61 72.1843 139.671 72.146 139.695 72.146C139.741 72.146 139.756 72.1916 139.756 72.2519V74.9991ZM139.756 77.0461C139.756 77.3321 140.03 77.8144 140.542 77.8144C141.36 77.8144 141.703 77.0237 141.703 76.3535C141.703 75.5408 141.078 74.8638 140.481 74.8638C140.198 74.8638 139.962 75.0445 139.756 75.2178V77.0461ZM106.8 82.2731H106.858C107.007 82.2731 107.165 82.2532 107.165 82.0399V79.8945C107.165 79.6809 107.007 79.6606 106.858 79.6606H106.8V79.5377C106.962 79.5377 107.211 79.5538 107.415 79.5538C107.623 79.5538 107.872 79.5377 108.067 79.5377V79.6606H108.009C107.86 79.6606 107.702 79.6809 107.702 79.8945V82.0399C107.702 82.2532 107.86 82.2731 108.009 82.2731H108.067V82.3965C107.868 82.3965 107.618 82.3805 107.411 82.3805C107.207 82.3805 106.962 82.3965 106.8 82.3965V82.2731ZM110.923 81.5893L110.931 81.5812V80.0457C110.931 79.7097 110.694 79.6606 110.57 79.6606H110.478V79.5377C110.674 79.5377 110.865 79.5539 111.06 79.5539C111.23 79.5539 111.401 79.5377 111.571 79.5377V79.6606H111.509C111.334 79.6606 111.139 79.6934 111.139 80.1806V82.0445C111.139 82.1876 111.143 82.3308 111.164 82.4577H111.006L108.865 80.1067V81.7943C108.865 82.1506 108.935 82.2731 109.256 82.2731H109.326V82.3965C109.148 82.3965 108.969 82.3805 108.79 82.3805C108.604 82.3805 108.412 82.3965 108.225 82.3965V82.2731H108.283C108.57 82.2731 108.657 82.081 108.657 81.7538V80.0287C108.657 79.7997 108.466 79.6606 108.279 79.6606H108.225V79.5377C108.383 79.5377 108.545 79.5539 108.703 79.5539C108.828 79.5539 108.948 79.5377 109.073 79.5377L110.923 81.5893ZM112.194 79.7424C111.882 79.7424 111.87 79.8162 111.807 80.1147H111.683C111.699 80.0002 111.72 79.8857 111.733 79.7667C111.75 79.6518 111.758 79.5377 111.758 79.419H111.857C111.891 79.5421 111.995 79.5377 112.107 79.5377H114.252C114.364 79.5377 114.468 79.5337 114.476 79.4106L114.576 79.427C114.559 79.5377 114.543 79.648 114.53 79.7588C114.522 79.8695 114.522 79.9801 114.522 80.0904L114.397 80.1359C114.389 79.9845 114.368 79.7424 114.09 79.7424H113.408V81.9212C113.408 82.2371 113.554 82.2731 113.753 82.2731H113.832V82.3965C113.67 82.3965 113.379 82.3805 113.155 82.3805C112.905 82.3805 112.614 82.3965 112.452 82.3965V82.2731H112.531C112.76 82.2731 112.876 82.253 112.876 81.9298V79.7424H112.194ZM114.708 82.2731H114.767C114.916 82.2731 115.074 82.2532 115.074 82.0399V79.8945C115.074 79.6809 114.916 79.6606 114.767 79.6606H114.708V79.5377C114.961 79.5377 115.395 79.5538 115.743 79.5538C116.093 79.5538 116.524 79.5377 116.807 79.5377C116.8 79.7135 116.804 79.9843 116.816 80.1644L116.691 80.1973C116.671 79.9312 116.621 79.7183 116.184 79.7183H115.607V80.7909H116.101C116.35 80.7909 116.405 80.6521 116.429 80.4304H116.554C116.546 80.5906 116.541 80.7502 116.541 80.9096C116.541 81.0657 116.546 81.2211 116.554 81.3767L116.429 81.401C116.405 81.1556 116.392 80.9958 116.105 80.9958H115.607V81.9499C115.607 82.2161 115.847 82.2161 116.113 82.2161C116.612 82.2161 116.832 82.1831 116.957 81.7169L117.073 81.745C117.019 81.9627 116.969 82.1791 116.932 82.3965C116.666 82.3965 116.188 82.3805 115.814 82.3805C115.44 82.3805 114.945 82.3965 114.708 82.3965V82.2731ZM117.634 79.9716C117.634 79.6728 117.468 79.6606 117.339 79.6606H117.264V79.5375C117.397 79.5375 117.655 79.5539 117.908 79.5539C118.158 79.5539 118.357 79.5375 118.577 79.5375C119.101 79.5375 119.567 79.6767 119.567 80.2588C119.567 80.6268 119.318 80.8521 118.989 80.9797L119.7 82.0273C119.816 82.2006 119.899 82.2492 120.103 82.273V82.3965C119.966 82.3965 119.833 82.3805 119.696 82.3805C119.567 82.3805 119.434 82.3965 119.305 82.3965C118.985 81.9829 118.71 81.5407 118.44 81.069H118.167V81.9459C118.167 82.2616 118.316 82.273 118.507 82.273H118.582V82.3965C118.344 82.3965 118.104 82.3805 117.867 82.3805C117.667 82.3805 117.472 82.3965 117.264 82.3965V82.273H117.339C117.493 82.273 117.634 82.2043 117.634 82.0525V79.9716ZM118.167 80.9215H118.37C118.786 80.9215 119.009 80.7663 119.009 80.2827C119.009 79.9188 118.773 79.6852 118.403 79.6852C118.278 79.6852 118.224 79.6978 118.167 79.7015V80.9215ZM122.925 81.5893L122.932 81.5812V80.0457C122.932 79.7097 122.696 79.6606 122.571 79.6606H122.48V79.5377C122.676 79.5377 122.866 79.5539 123.062 79.5539C123.233 79.5539 123.402 79.5377 123.574 79.5377V79.6606H123.511C123.337 79.6606 123.141 79.6934 123.141 80.1806V82.0445C123.141 82.1876 123.145 82.3308 123.166 82.4577H123.008L120.868 80.1067V81.7943C120.868 82.1506 120.938 82.2731 121.258 82.2731H121.329V82.3965C121.15 82.3965 120.972 82.3805 120.793 82.3805C120.605 82.3805 120.414 82.3965 120.227 82.3965V82.2731H120.285C120.572 82.2731 120.66 82.081 120.66 81.7538V80.0287C120.66 79.7997 120.468 79.6606 120.282 79.6606H120.227V79.5377C120.385 79.5377 120.548 79.5539 120.706 79.5539C120.829 79.5539 120.95 79.5377 121.075 79.5377L122.925 81.5893ZM124.242 81.8109C124.2 81.9499 124.15 82.0571 124.15 82.1301C124.15 82.2532 124.325 82.2731 124.462 82.2731H124.508V82.3965C124.342 82.3876 124.172 82.3806 124.004 82.3806C123.855 82.3806 123.706 82.3876 123.556 82.3965V82.2731H123.581C123.743 82.2731 123.881 82.1791 123.942 82.0067L124.608 80.1277C124.661 79.9761 124.737 79.7712 124.762 79.6192C124.894 79.5747 125.061 79.4929 125.14 79.4436C125.152 79.4393 125.16 79.4351 125.173 79.4351C125.185 79.4351 125.193 79.4351 125.202 79.4477C125.215 79.4804 125.226 79.5172 125.24 79.5499L126.005 81.6921C126.054 81.8352 126.104 81.9866 126.158 82.11C126.208 82.2247 126.295 82.2731 126.433 82.2731H126.457V82.3965C126.27 82.3876 126.083 82.3806 125.884 82.3806C125.68 82.3806 125.472 82.3876 125.26 82.3965V82.2731H125.306C125.401 82.2731 125.564 82.2572 125.564 82.1546C125.564 82.1016 125.526 81.9912 125.48 81.8597L125.318 81.3847H124.375L124.242 81.8109ZM124.849 79.9964H124.84L124.454 81.1556H125.231L124.849 79.9964ZM126.64 79.7424C126.328 79.7424 126.316 79.8162 126.254 80.1147H126.129C126.145 80.0002 126.166 79.8857 126.179 79.7667C126.196 79.6518 126.203 79.5377 126.203 79.419H126.304C126.337 79.5421 126.441 79.5377 126.553 79.5377H128.698C128.81 79.5377 128.913 79.5337 128.922 79.4106L129.021 79.427C129.005 79.5377 128.989 79.648 128.976 79.7588C128.967 79.8695 128.967 79.9801 128.967 80.0904L128.843 80.1359C128.835 79.9845 128.814 79.7424 128.536 79.7424H127.854V81.9212C127.854 82.2371 128 82.2731 128.199 82.2731H128.278V82.3965C128.116 82.3965 127.825 82.3805 127.6 82.3805C127.351 82.3805 127.06 82.3965 126.898 82.3965V82.2731H126.977C127.206 82.2731 127.322 82.253 127.322 81.9298V79.7424H126.64ZM129.175 82.2731H129.233C129.383 82.2731 129.54 82.2532 129.54 82.0399V79.8945C129.54 79.6809 129.383 79.6606 129.233 79.6606H129.175V79.5377C129.337 79.5377 129.586 79.5538 129.789 79.5538C129.998 79.5538 130.247 79.5377 130.443 79.5377V79.6606H130.385C130.235 79.6606 130.076 79.6809 130.076 79.8945V82.0399C130.076 82.2532 130.235 82.2731 130.385 82.2731H130.443V82.3965C130.243 82.3965 129.994 82.3805 129.786 82.3805C129.582 82.3805 129.337 82.3965 129.175 82.3965V82.2731ZM132.1 79.4765C132.987 79.4765 133.693 80.0174 133.693 80.8897C133.693 81.8317 133.007 82.4579 132.122 82.4579C131.24 82.4579 130.567 81.8683 130.567 80.9877C130.567 80.1361 131.236 79.4765 132.1 79.4765ZM132.163 82.2777C132.97 82.2777 133.11 81.5769 133.11 80.9799C133.11 80.381 132.783 79.6564 132.092 79.6564C131.365 79.6564 131.149 80.2955 131.149 80.8437C131.149 81.5769 131.49 82.2777 132.163 82.2777ZM136.494 81.5893L136.502 81.5812V80.0457C136.502 79.7097 136.265 79.6606 136.14 79.6606H136.05V79.5377C136.244 79.5377 136.436 79.5539 136.63 79.5539C136.802 79.5539 136.972 79.5377 137.143 79.5377V79.6606H137.08C136.906 79.6606 136.71 79.6934 136.71 80.1806V82.0445C136.71 82.1876 136.714 82.3308 136.735 82.4577H136.577L134.436 80.1067V81.7943C134.436 82.1506 134.507 82.2731 134.827 82.2731H134.898V82.3965C134.719 82.3965 134.54 82.3805 134.362 82.3805C134.175 82.3805 133.983 82.3965 133.796 82.3965V82.2731H133.854C134.142 82.2731 134.228 82.081 134.228 81.7538V80.0287C134.228 79.7997 134.038 79.6606 133.85 79.6606H133.796V79.5377C133.954 79.5377 134.116 79.5539 134.274 79.5539C134.398 79.5539 134.519 79.5377 134.644 79.5377L136.494 81.5893ZM137.81 81.8109C137.77 81.9499 137.719 82.0571 137.719 82.1301C137.719 82.2532 137.894 82.2731 138.031 82.2731H138.077V82.3965C137.911 82.3876 137.74 82.3806 137.574 82.3806C137.424 82.3806 137.275 82.3876 137.126 82.3965V82.2731H137.149C137.312 82.2731 137.45 82.1791 137.511 82.0067L138.177 80.1277C138.231 79.9761 138.306 79.7712 138.33 79.6192C138.463 79.5747 138.629 79.4929 138.709 79.4436C138.721 79.4393 138.729 79.4351 138.742 79.4351C138.754 79.4351 138.762 79.4351 138.771 79.4477C138.783 79.4804 138.796 79.5172 138.809 79.5499L139.573 81.6921C139.623 81.8352 139.672 81.9866 139.727 82.11C139.777 82.2247 139.865 82.2731 140.001 82.2731H140.027V82.3965C139.839 82.3876 139.652 82.3806 139.452 82.3806C139.249 82.3806 139.041 82.3876 138.829 82.3965V82.2731H138.875C138.97 82.2731 139.133 82.2572 139.133 82.1546C139.133 82.1016 139.095 81.9912 139.049 81.8597L138.887 81.3847H137.944L137.81 81.8109ZM138.418 79.9964H138.41L138.022 81.1556H138.8L138.418 79.9964ZM141.074 81.995C141.074 82.1592 141.189 82.2079 141.323 82.2247C141.493 82.2371 141.68 82.2371 141.872 82.2163C142.046 82.1957 142.196 82.0976 142.27 81.995C142.337 81.9048 142.374 81.7903 142.399 81.7001H142.52C142.474 81.9335 142.416 82.1633 142.366 82.3965C142.001 82.3965 141.634 82.3806 141.269 82.3806C140.903 82.3806 140.537 82.3965 140.171 82.3965V82.2731H140.229C140.379 82.2731 140.542 82.2532 140.542 81.999V79.8943C140.542 79.6809 140.379 79.6606 140.229 79.6606H140.171V79.5377C140.391 79.5377 140.608 79.5539 140.828 79.5539C141.04 79.5539 141.248 79.5377 141.46 79.5377V79.6606H141.356C141.198 79.6606 141.074 79.6651 141.074 79.8817V81.995Z" fill="#3A3A3A"/>
</g>
<path d="M173.914 73.0705H175.96L174.938 70.3892L173.914 73.0705Z" fill="#3A3A3A"/>
<path d="M184.795 82.071V83.3161H188.237V84.6571H184.795V86.0939H188.608L190.375 84.0824L188.702 82.071H184.795Z" fill="#3A3A3A"/>
<path d="M211.673 70.3892L210.557 73.0705H212.696L211.673 70.3892Z" fill="#3A3A3A"/>
<path d="M194.747 86.8586V81.4004L192.329 84.0819L194.747 86.8586Z" fill="#3A3A3A"/>
<path d="M199.304 82.9333C199.211 82.3587 198.839 82.071 198.28 82.071H196.328V83.7947H198.374C198.932 83.7948 199.304 83.5077 199.304 82.9333Z" fill="#3A3A3A"/>
<path d="M205.813 83.6045C205.999 83.5085 206.093 83.2209 206.093 82.9342C206.186 82.5515 205.999 82.3597 205.813 82.2638C205.628 82.168 205.348 82.168 205.07 82.168H203.209V83.7003H205.07C205.348 83.7003 205.628 83.7003 205.813 83.6045Z" fill="#3A3A3A"/>
<path d="M219.205 67.8999V69.049L218.647 67.8999H214.277V69.049L213.719 67.8999H207.766C206.744 67.8999 205.906 68.0916 205.163 68.4746V67.8999H200.978V67.9958V68.4746C200.513 68.0917 199.955 67.8999 199.211 67.8999H184.238L183.214 70.294L182.191 67.8999H178.844H177.448V69.049L176.983 67.8999H176.89H172.891L171.031 72.4005L168.892 77.2841L168.853 77.3801H168.892H173.635H173.695L173.729 77.2841L174.287 75.848H175.496L176.054 77.3801H181.447V77.2841V76.231L181.913 77.38H184.609L185.074 76.231V77.2841V77.3801H187.213H197.908H198.001V74.8902H198.188C198.374 74.8902 198.374 74.8902 198.374 75.1776V77.2843H205.07V76.7097C205.628 76.9974 206.464 77.2843 207.58 77.2843H210.371L210.929 75.7525H212.23L212.788 77.2843H218.182V76.3269V75.8482L219.019 77.2843H219.205H219.298H223.39V67.8999H219.205H219.205ZM187.678 75.944H186.748H186.19V75.3699V70.6771L186.097 70.8967V70.8941L183.934 75.944H183.865H183.368H182.563L180.331 70.6771V75.944H177.169L176.519 74.5076H173.356L172.705 75.944H171.07L173.821 69.2407H176.146L178.75 75.6565V69.2407H179.308H181.214L181.258 69.3367H181.261L182.435 71.9662L183.277 73.9364L183.307 73.8371L185.167 69.2408H187.678V75.944H187.678ZM194.096 70.6771H190.469V71.9219H194.003V73.2624H190.469V74.6035H194.096V76.0395H188.888V69.2408H194.096V70.6771ZM200.729 73.1463C200.731 73.1485 200.734 73.15 200.737 73.1521C200.773 73.1904 200.803 73.2288 200.828 73.2656C201.006 73.506 201.15 73.8637 201.158 74.3881C201.158 74.3972 201.159 74.4062 201.159 74.4152C201.159 74.4205 201.16 74.425 201.16 74.4304C201.16 74.4334 201.16 74.4358 201.16 74.4387C201.162 74.4914 201.163 74.5452 201.163 74.6035V75.9442H199.769V75.1778C199.769 74.7948 199.769 74.2201 199.489 73.8371C199.401 73.7466 199.312 73.687 199.216 73.6446C199.076 73.5516 198.812 73.5501 198.374 73.5501H196.699V75.9442H195.118V69.2408H198.653C199.489 69.2408 200.047 69.2408 200.513 69.5281C200.968 69.8099 201.244 70.2772 201.254 71.0171C201.232 72.0362 200.597 72.5953 200.14 72.7839C200.14 72.7839 200.451 72.8482 200.729 73.1463ZM203.861 75.944H202.279V69.2407H203.861V75.944ZM221.996 75.944H219.949L216.974 70.8685V75.0819L216.964 75.072V75.9482H215.393V75.9442H213.811L213.253 74.5078H209.998L209.44 76.0396H207.673C206.93 76.0396 205.999 75.8483 205.441 75.2738C204.883 74.6992 204.605 73.9331 204.605 72.6884C204.605 71.7309 204.79 70.7727 205.441 70.0068C205.906 69.4319 206.743 69.2408 207.766 69.2408H209.255V70.6771H207.766C207.208 70.6771 206.93 70.7725 206.557 71.0603C206.279 71.3475 206.092 71.9219 206.092 72.5922C206.092 73.3584 206.185 73.8371 206.557 74.2201C206.837 74.5078 207.208 74.6036 207.673 74.6036H208.324L210.463 69.337H211.393H212.788L215.393 75.7527V75.4255V73.2627V73.0714V69.3371H217.717L220.414 74.0291V69.3371H221.996V75.9443H221.996V75.944Z" fill="#3A3A3A"/>
<path d="M199.403 72.0313C199.43 72.0014 199.454 71.9676 199.475 71.9287C199.56 71.7914 199.656 71.5441 199.604 71.2065C199.602 71.1756 199.596 71.1469 199.59 71.1192C199.588 71.1115 199.589 71.1048 199.587 71.0971L199.586 71.0972C199.539 70.9332 199.421 70.8324 199.303 70.7712C199.117 70.6758 198.838 70.6758 198.559 70.6758H196.699V72.2081H198.559C198.838 72.2081 199.117 72.2081 199.303 72.1122C199.331 72.0976 199.356 72.0777 199.38 72.0553L199.38 72.0565C199.381 72.0564 199.39 72.0462 199.403 72.0313Z" fill="#3A3A3A"/>
<path d="M227.483 85.5195C227.483 84.8492 227.297 84.1787 227.018 83.7V79.391H227.014V79.1033C227.014 79.1033 223.116 79.1033 222.536 79.1033C221.956 79.1033 221.252 79.6777 221.252 79.6777V79.1033H216.974C216.323 79.1033 215.486 79.295 215.114 79.6777V79.1033H207.488V79.391V79.6776C206.93 79.1992 205.907 79.1032 205.442 79.1032H200.42V79.3909V79.6774C199.955 79.199 198.838 79.103 198.28 79.103H192.701L191.399 80.5395L190.19 79.103H189.8H189.167H181.82V79.3907V80.1472V88.7752H190.004L191.349 87.3902L192.514 88.7752H192.608H197.323H197.537H197.63H197.723V87.8177V86.5729H198.188C198.838 86.5729 199.676 86.5729 200.327 86.2852V88.679V88.8709H204.512V88.679V86.381H204.697C204.977 86.381 204.977 86.381 204.977 86.6683V88.679V88.8709H217.624C218.462 88.8709 219.298 88.679 219.763 88.296V88.679V88.8709H223.763C224.599 88.8709 225.437 88.7752 225.995 88.392C226.851 87.863 227.391 86.9267 227.471 85.8099C227.475 85.7769 227.479 85.7438 227.482 85.7106L227.477 85.7053C227.48 85.6433 227.483 85.582 227.483 85.5195ZM198.188 84.9451H196.328V85.2317V85.8065V86.3812V87.4346H193.271L191.492 85.3276L191.486 85.3347L191.399 85.2317L189.353 87.4346H183.401V80.7315H189.446L191.097 82.5941L191.444 82.9841L191.492 82.9339L193.445 80.7317H198.374C199.33 80.7317 200.401 80.9747 200.807 81.9769C200.856 82.1753 200.885 82.396 200.885 82.6466C200.885 84.5617 199.583 84.9451 198.188 84.9451ZM207.488 84.8491C207.674 85.1357 207.767 85.5193 207.767 86.0942V87.4344H206.186V86.5729C206.186 86.1892 206.186 85.5193 205.907 85.2317C205.721 84.9451 205.349 84.9451 204.791 84.9451H203.117V87.4346H201.536V80.6357H205.07C205.814 80.6357 206.465 80.6357 206.93 80.9227C207.395 81.2102 207.767 81.6891 207.767 82.4552C207.767 83.5083 207.116 84.0828 206.651 84.2747C207.116 84.4654 207.395 84.6575 207.488 84.8491ZM213.905 82.0715H210.278V83.3164H213.812V84.6574H210.278V85.9982H213.905V87.4344H208.697V80.6355H213.905V82.0715ZM217.811 87.4346H214.835V85.9983H217.811C218.089 85.9983 218.276 85.9983 218.462 85.8066C218.555 85.7106 218.648 85.5195 218.648 85.3278C218.648 85.1358 218.555 84.9452 218.462 84.8492C218.369 84.7535 218.183 84.6577 217.904 84.6577C216.416 84.5618 214.649 84.6577 214.649 82.5512C214.649 81.5935 215.207 80.54 216.881 80.54H219.95V82.1676H217.067C216.788 82.1676 216.602 82.1676 216.416 82.2635C216.23 82.3595 216.23 82.5512 216.23 82.7424C216.23 83.0299 216.416 83.1257 216.602 83.2207C216.788 83.3167 216.974 83.3167 217.16 83.3167H217.997C218.834 83.3167 219.392 83.5083 219.764 83.8914C220.043 84.1788 220.229 84.6577 220.229 85.3278C220.229 86.7638 219.392 87.4346 217.811 87.4346ZM225.809 86.7637C225.437 87.1473 224.786 87.4346 223.856 87.4346H220.88V85.9983H223.856C224.135 85.9983 224.321 85.9983 224.507 85.8066C224.6 85.7106 224.693 85.5195 224.693 85.3278C224.693 85.1358 224.6 84.9452 224.507 84.8492C224.414 84.7535 224.228 84.6577 223.949 84.6577C222.461 84.5618 220.694 84.6577 220.694 82.5513C220.694 81.6411 221.2 80.819 222.447 80.5748C222.596 80.5536 222.753 80.54 222.926 80.54H225.995V82.1676H223.949H223.205H223.112C222.833 82.1676 222.647 82.1676 222.461 82.2635C222.368 82.3595 222.275 82.5512 222.275 82.7424C222.275 83.0299 222.368 83.1257 222.647 83.2207C222.833 83.3167 223.019 83.3167 223.205 83.3167H223.298H224.042C224.448 83.3167 224.756 83.3684 225.037 83.4701C225.295 83.5661 226.147 83.9589 226.338 84.9842C226.355 85.0916 226.367 85.2037 226.367 85.3278C226.367 85.9025 226.181 86.3812 225.809 86.7637Z" fill="#3A3A3A"/>
<defs>
<clipPath id="clip0_2783_306">
<rect width="58.6294" height="15.6959" fill="white" transform="translate(86.7715 70.3142)"/>
</clipPath>
</defs>
</svg>
